<svg xmlns="http://www.w3.org/2000/svg" viewBox="0 0 1920 1080"><defs><style>.cls-1{opacity:0.5;}.cls-2,.cls-25,.cls-3{fill:#534741;}.cls-10,.cls-11,.cls-3,.cls-5,.cls-6,.cls-7{stroke:#534741;}.cls-10,.cls-11,.cls-20,.cls-21,.cls-22,.cls-23,.cls-24,.cls-25,.cls-26,.cls-27,.cls-28,.cls-29,.cls-3,.cls-30,.cls-31,.cls-4,.cls-5,.cls-6,.cls-7{stroke-linecap:round;}.cls-10,.cls-11,.cls-20,.cls-21,.cls-22,.cls-23,.cls-24,.cls-25,.cls-26,.cls-27,.cls-28,.cls-29,.cls-3,.cls-30,.cls-4,.cls-5,.cls-6,.cls-7{stroke-linejoin:round;}.cls-10,.cls-11,.cls-13,.cls-16,.cls-20,.cls-21,.cls-22,.cls-23,.cls-24,.cls-25,.cls-26,.cls-29,.cls-3,.cls-30,.cls-32,.cls-33,.cls-5,.cls-6,.cls-7{stroke-width:2px;}.cls-13,.cls-16,.cls-17,.cls-18,.cls-4,.cls-7{fill:#fff;}.cls-13,.cls-18,.cls-20,.cls-21,.cls-22,.cls-23,.cls-24,.cls-25,.cls-26,.cls-27,.cls-28,.cls-29,.cls-30,.cls-31,.cls-32,.cls-33,.cls-34,.cls-4{stroke:#000;}.cls-34,.cls-4{stroke-width:3px;}.cls-22,.cls-31,.cls-32,.cls-34,.cls-6{fill:none;}.cls-24,.cls-8{fill:#42210b;}.cls-15,.cls-20,.cls-9{fill:#c69c6d;}.cls-10,.cls-12,.cls-26{fill:#c7b299;}.cls-11{fill:#53210b;}.cls-13,.cls-15,.cls-16,.cls-18,.cls-31,.cls-32,.cls-33,.cls-34{stroke-miterlimit:10;}.cls-14{fill:#009245;}.cls-15{stroke:#009245;stroke-width:8px;}.cls-16{stroke:#fff;}.cls-19,.cls-29,.cls-33{fill:#000a1f;}.cls-21{fill:#736357;}.cls-23,.cls-28{fill:#590000;}.cls-27{fill:#a30000;}</style></defs><title>Artboard 1</title><g id="Layer_4" data-name="Layer 4"><g class="cls-1"><path class="cls-2" d="M732.55,270.12a1.5,1.5,0,0,0,0-3,1.5,1.5,0,0,0,0,3Z"/></g><rect class="cls-3" x="203" y="192" width="421" height="530" transform="translate(-86.68 96.92) rotate(-12.11)"/><rect class="cls-4" x="241.18" y="227.12" width="347.82" height="418.25" transform="translate(-82.29 96.79) rotate(-12.11)"/><path class="cls-5" d="M366.13,371.68s-7-12.88-25.46-32.57-46.3-26.2-46.3-26.2c-37.44-7.08-36.25-4.7-37.44-7.08s-25.41,4.8-25.41,4.8-14.39,2.43-6.21,18.41,20.74,46.14,20.74,46.14l29,43.7s11,25.9,21.23,26.33,25.11,6.43,25.11,6.43"/><path class="cls-5" d="M395.36,360.23c-43.93,10.08-65.08,44.18-65.08,44.18s-17.59,25.46-10.44,43,11.18,67.9,28.38,75.38,30.34,11.88,33.39,19.77,3.31,31.6,19.5,37.2c23.43,8.12,42.36,4.71,42.36,4.71"/><path class="cls-5" d="M431.07,359.25s1.13-14.86,10-40.8,32-43.58,32-43.58c31.79-22.18,31.68-19.48,31.79-22.18s25.57-6.15,25.57-6.15,14.36-3.75,13.45,14.47,0,51.4,0,51.4L535.22,365s.62,28.57-8.72,33.24-25,20.67-25,20.67"/><path class="cls-5" d="M461.54,367.87l10.29-39.82s24.47-40.73,43.83-39"/><path class="cls-5" d="M443.47,584.45s18.66-4.66,36.7-21.67c12.47-11.75,3-33.49,2.53-41.93S492.42,503,505,489.12s-4.38-61.48-5-80.39-27.15-34.91-27.15-34.91-33.28-22.42-77.48-13.59"/><path class="cls-6" d="M464.69,503.15s-10.17.09-15.08-13.31l-4.91-13.4"/><path class="cls-7" d="M384.46,476.88s1.3-.28-1.83-2.23-3.75,1.46-11,2.36-13.31-8.31-13.31-8.31a28.52,28.52,0,0,1,15-5.85c8.69-.55,9.31,11.8,9.31,11.8"/><path d="M371.61,474.59a4.69,4.69,0,0,1-4.39-3.86,5,5,0,0,1,.54-3.61,4.11,4.11,0,0,1,2.66-2,3.81,3.81,0,0,1,.82-.09,4.69,4.69,0,0,1,4.39,3.86,5,5,0,0,1-.54,3.61,4.09,4.09,0,0,1-2.66,2A3.81,3.81,0,0,1,371.61,474.59Z"/><path class="cls-8" d="M371.24,466.06h0a3.68,3.68,0,0,1,3.41,3.07,4,4,0,0,1-.43,2.89,3.07,3.07,0,0,1-2,1.5,3.17,3.17,0,0,1-.61.07,3.68,3.68,0,0,1-3.41-3.07,3.56,3.56,0,0,1,2.43-4.39,2.54,2.54,0,0,1,.61-.07m0-2a5.23,5.23,0,0,0-1,.11,5.57,5.57,0,0,0-4,6.77,5.69,5.69,0,0,0,5.37,4.65,5.23,5.23,0,0,0,1-.11,5.57,5.57,0,0,0,4-6.77,5.69,5.69,0,0,0-5.37-4.65Z"/><path class="cls-7" d="M452.5,462.28s-1.29.28.76-2.79,4-.2,11-2.36,8.72-13,8.72-13a28.53,28.53,0,0,0-16.09.82c-8.15,3.07-3.65,14.58-3.65,14.58"/><path d="M461.68,455.26a4.69,4.69,0,0,1-4.39-3.86,5,5,0,0,1,.55-3.61,4.07,4.07,0,0,1,2.66-2,3.75,3.75,0,0,1,.82-.09,4.7,4.7,0,0,1,4.39,3.86,4.57,4.57,0,0,1-3.21,5.58A3.75,3.75,0,0,1,461.68,455.26Z"/><path class="cls-8" d="M461.32,446.73a3.7,3.7,0,0,1,3.41,3.07,3.57,3.57,0,0,1-2.44,4.39,2.48,2.48,0,0,1-.61.07,3.68,3.68,0,0,1-3.41-3.07,4,4,0,0,1,.43-2.89,3,3,0,0,1,2.62-1.57m0-2a5.07,5.07,0,0,0-1,.11,5.56,5.56,0,0,0-4,6.77,5.66,5.66,0,0,0,5.36,4.65,5.15,5.15,0,0,0,1-.11,5.55,5.55,0,0,0,4-6.77,5.68,5.68,0,0,0-5.36-4.65Z"/><path class="cls-9" d="M392,462.09a115.75,115.75,0,0,1-9.29-17.34l2.64-3.94c1.19-.62,4-1.88,5.66-1.88a1.18,1.18,0,0,1,.74.17,14.22,14.22,0,0,1,2,2.33c.38.52.86,1.17,1.58,2.05,1.68,2,2.46,5.72,3.38,10C399.28,455.94,395.2,459.83,392,462.09Z"/><path class="cls-2" d="M391,439.93h.18A12.49,12.49,0,0,1,393,442c.39.53.88,1.19,1.61,2.09,1.53,1.86,2.29,5.42,3.18,9.55.36,1.67-2.6,4.77-5.48,7a114.07,114.07,0,0,1-8.42-15.79l2.2-3.28a14.54,14.54,0,0,1,5-1.65m0-2c-2.42,0-6.34,2.11-6.34,2.11l-3.08,4.6a115.15,115.15,0,0,0,10.15,18.85s8.91-5.85,8-10.25-1.76-8.17-3.59-10.4-2-2.86-3.67-4.47a2.09,2.09,0,0,0-1.44-.44Z"/><path class="cls-9" d="M442.13,451.34c-3.82-.76-9.14-2.63-9.67-5.12-.92-4.26-1.71-7.93-1-10.49.3-1.09.46-1.88.6-2.51a14.12,14.12,0,0,1,.87-3c.16-.38,1.45-1.1,5.22-1.1.58,0,1.05,0,1.32,0l4,2.51A116.92,116.92,0,0,1,442.13,451.34Z"/><path class="cls-2" d="M438.14,430.17h0l1,0,3.35,2.09a115.55,115.55,0,0,1-1.2,17.86c-3.54-.84-7.51-2.46-7.87-4.13-.88-4.13-1.65-7.69-1-10,.31-1.12.48-1.92.61-2.56a13.19,13.19,0,0,1,.77-2.63c.33-.21,1.57-.63,4.35-.63m-4.29.48h0m4.29-2.48c-2.09,0-5.53.24-6.14,1.72-.89,2.16-.76,2.79-1.52,5.58s0,6.56,1,11S443,452.51,443,452.51a114.54,114.54,0,0,0,1.52-21.35l-4.7-2.94s-.67-.05-1.63-.05Z"/><path class="cls-10" d="M480,522.06l5.85,15.2.74,7.71-1.37,9.93-8.54,11-12,8.8-13.3,6.93-10.68,3.15L428,585l-17.84-2.62-12.34-4.16-7.7-7.87-4.36-11.64c3.84-.83-4.51-36.19,8.25-40.53,2.41-.82-1.74.54.24-.1l18.14-5.82,32.4-6.95,18.94-2.14c2.06-.23-2.27.23.26,0,13.42-1.27,18.74,33.42,22.59,32.6"/><path class="cls-6" d="M344.19,387.8l-25.72-32.1s-39-27.1-56-17.56"/><path class="cls-6" d="M428,508.94l-35.89,9.79s9.32-4.09,8.3-18.32l-1-14.24"/><path class="cls-11" d="M431.29,521.37c19.66-9.48,28.54-2.84,28.54-2.84,4.23,10.26,3.23,15.07,3.23,15.07-6.64,13.25-9.83,20.51-15,21.62L439.62,557"/><path class="cls-11" d="M432.59,521.09c-21.82-.58-27.19,9.12-27.19,9.12.34,11.09,3.23,15.07,3.23,15.07,11.5,9.36,17.38,14.67,22.57,13.55l8.42-1.8"/><path class="cls-5" d="M406.2,538.08s1.73.78,10.94-.54,1.16-.9,3.89-.83,4.83,3.56,3.69,7.75-11.63,4.46-11.63,4.46L406.6,540"/><path class="cls-5" d="M462.33,526s-1.26,1.43-10.2,4-1.43-.35-3.89.84-2.94,5.23-.19,8.58,12.44-.7,12.44-.7Z"/><path class="cls-6" d="M404.26,580.79s16.07.09,22.29-2.56,10.45-8.16,10.83-9.55"/><path class="cls-6" d="M473.34,568.85S458,573.12,451.17,573s-12.81-2.84-13.79-4.27"/><path d="M322.69,704.52c-.66-2.47-1.46-5.43-1.92-7.67l-.07,0c-.16,2.23-.41,4.61-.77,7.27l-1.25,9.35-1.72.37L312.28,706c-1.38-2.34-2.58-4.5-3.54-6.52l-.05,0c.43,2.24.94,5.26,1.36,8l1.17,7.77-2.17.47-2.61-18.16,2.91-.62,4.86,8c1.21,2,2.23,3.88,3.07,5.64l.08,0c.06-1.9.26-4,.57-6.42l1.28-9.33,2.9-.62,4.94,17.65-2.23.48Z"/><path d="M340.69,702.05c1,4.75-1.78,7.51-4.84,8.17-3.43.74-6.62-1.24-7.49-5.31-.92-4.29,1.31-7.41,4.82-8.16S339.85,698.12,340.69,702.05Zm-10,2.28c.61,2.82,2.66,4.6,4.91,4.12s3.39-2.92,2.77-5.82c-.47-2.17-2.13-4.7-4.85-4.12S330.15,701.89,330.67,704.33Z"/><path d="M341,689.11l2.3-.49,4.05,18.84L345,708Z"/><path d="M347.13,687.78l2.3-.49,4,18.84-2.3.5Z"/><path d="M355.42,692.28l4.4,7c.47.79,1,1.73,1.38,2.46h.05c.07-.82.12-1.86.24-2.86l.89-8.07,2.43-.53-1.49,9.9c-.7,4.76-1.34,7.26-2.61,9a6.42,6.42,0,0,1-2.5,2.11l-1-1.84a6.08,6.08,0,0,0,1.77-1.57,7.27,7.27,0,0,0,1.38-3,1.72,1.72,0,0,0,.06-.59,2,2,0,0,0-.29-.58l-7.22-10.83Z"/><path d="M374.48,701.63l-.31-1.44,1.42-2.16c3.44-5.13,4.93-7.78,4.4-10.38a3.13,3.13,0,0,0-4.1-2.65,5.89,5.89,0,0,0-3.3,2.23l-1.08-1.48a7.56,7.56,0,0,1,4.43-2.79,4.93,4.93,0,0,1,6.28,3.9c.69,3.19-1,6.25-3.87,10.52L377.27,699v0l7.64-1.64.41,1.94Z"/><path d="M397.3,687.51c1.26,5.87-.19,9.57-3.95,10.37-3.33.72-6.25-2-7.53-7.65s.53-9.5,4-10.24S396.12,682,397.3,687.51Zm-9.17,2.25c1,4.48,2.87,6.74,5,6.29,2.35-.5,2.88-3.53,1.93-7.94-.91-4.24-2.58-6.8-5-6.29C388.05,682.25,387.12,685.06,388.13,689.76Z"/><path d="M403.08,679.72H403l-2.6,2.26-.83-1.69,3.28-2.81,2-.42,3.7,17.25-2.22.48Z"/><path d="M422.07,673.37l.33,1.54-4,17.3-2.38.51,4.1-16.84v-.06l-8.32,1.79-.41-1.94Z"/></g><g id="Layer_5" data-name="Layer 5"><rect class="cls-12" x="837.76" y="162.85" width="386.84" height="475" transform="translate(53.2 -116.52) rotate(6.64)"/><rect class="cls-13" x="867.55" y="187.93" width="327.25" height="388.74" transform="translate(51.11 -116.64) rotate(6.64)"/><path class="cls-14" d="M1137.44,311.79a57,57,0,0,1,26.59-2.42,8.47,8.47,0,0,1,5.22,2.25c3.25,3.19,5.18,10.05,6.76,16.21a15.54,15.54,0,0,1,.66,4.18,5.23,5.23,0,0,1-1.38,3.36c-2.63,3.06-5.94,4.19-9.19,5.28l-20.84,7"/><ellipse class="cls-15" cx="1024.66" cy="374.36" rx="123.32" ry="158.69" transform="matrix(0.99, -0.14, 0.14, 0.99, -42.29, 147.02)"/><path class="cls-16" d="M1009.06,303.93s-3.64-17.29-9.91-14.76-11,8.3-11,8.3-4.3,3.83-1.67,12.27,10.83,19.08,10.83,19.08l10.62,10,6.92,4.6,3.64,17.28"/><path class="cls-16" d="M1018.79,360.67s-1.81-15.66-13.9-16.35S990,348.15,990,348.15s-3.73,0-1.78,12.79,3.27,19.08,5.12,24.3,11.39,15.09,13.71,15.45,10.06,8.79,13.08,9,12.57,10,12.57,10l3.83,11.43s-25.45-7.77-27.62-11-24.34-26.94-24-28.92-11,11.37-5,26,23,34.87,25.53,36.12,17.91,10.58,20.22,10.93,17.66,5.89,17.66,5.89l3,14.4s-25.5-7.67-27.49-10-27.07-18.66-27.64-21.36-18.92-33.08-19.35-38.66-5.09-34.75-5.09-34.75-11.55,25.56-11.33,41.82c0,3.78,1,22.51,3.81,32.23s19.58,29.12,19.58,29.12,18.25,22.82,21.46,23.89,25.41,14.33,25.74,12.35,28.57,8.07,27.73.58"/><path class="cls-16" d="M1019.5,360.49s-4.65-14.94,5.92-21.45,14.87-3.82,14.87-3.82,3.35-1.82,6.71,10.6,4.7,18.72,5.13,24.3-4.18,19.1-6.12,20.55-5.51,12.8-8.15,14.43-7.25,15.15-7.25,15.15l1.14,12.13S1051.47,413,1052.12,409s11.06-36,10-37.67,14.45,4.82,14.85,20.85-6.71,42.53-8.45,44.87-11.83,18.23-13.77,19.67-13.48,13.91-13.48,13.91l3,14.4s19.81-19.33,20.66-22.39,16.82-30,16.25-32.65,3.73-38.91,1.89-44.13-9.34-33.65-9.34-33.65,20.59,17.29,26.9,32c1.46,3.42,8.09,20.69,9.47,30.77s-5.91,35.68-5.91,35.68-7.24,29.38-9.69,31.9-17.06,25.27-18.15,23.65-26,22-28.22,14.85"/><path class="cls-16" d="M1007.09,305.18s-3.6-17.07,2.83-17.83,12.79,2.11,12.79,2.11,5.23,1.36,6.25,10.09-1.93,22.09-1.93,22.09l-5.29,14-4.21,7.39,3.6,17.07"/><path class="cls-17" d="M1012.52,333.82c2.56,8.11,1,15.89,2.31,24.05a1.51,1.51,0,0,0,2.74.35,25.13,25.13,0,0,0,2.06-12.34,1.5,1.5,0,0,0-3,0,108.62,108.62,0,0,0,1.65,30.27c.37,1.92,3.19,1.08,2.89-.79l-2.67-17.05-2.74,1.15a64.77,64.77,0,0,1,3.78,11.42c.38,1.61,3.14,1.3,3-.4l-.2-1.75c-.22-1.9-3.22-1.92-3,0l.2,1.75,3-.4a69.24,69.24,0,0,0-4.09-12.13c-.75-1.68-3-.38-2.75,1.15l2.68,17,2.89-.79a105.63,105.63,0,0,1-1.54-29.48h-3a22.07,22.07,0,0,1-1.65,10.83l2.74.36c-.75-4.57.09-9.14-.25-13.73a45,45,0,0,0-2.06-10.32c-.58-1.83-3.47-1-2.89.8Z"/><path class="cls-17" d="M1034.54,429.16a19.9,19.9,0,0,0,1.07-10.08c-.19-1.49-2.67-2.25-2.95-.4a29.86,29.86,0,0,1-1.53,6.09h2.9l-2.2-6.16a1.5,1.5,0,0,0-2.89.8q1.13,6.36,2.54,12.65c.42,1.89,3.26,1.08,2.89-.8-1-5.32-1.72-13.39-5.5-17.64-1.6-1.8-4-2.68-6-3.95a54.39,54.39,0,0,1-10-8.52c-1.33-1.41-3.45.72-2.12,2.12a71.45,71.45,0,0,0,13.42,10.65c5.49,3.59,6.16,12.07,7.35,18.14l2.89-.8q-1.41-6.3-2.54-12.65l-2.89.8,2.19,6.15a1.52,1.52,0,0,0,2.9,0,31,31,0,0,0,1.53-6.09l-3-.39a18.54,18.54,0,0,1-1,9.28c-.68,1.81,2.22,2.59,2.89.8Z"/><path class="cls-17" d="M1038.81,429.35c-5.11-5.62-5-13.07-1.68-19.51a195.08,195.08,0,0,0,8.28-18c.71-1.79-2.19-2.57-2.89-.8-5,12.69-17.5,27.59-5.83,40.44,1.3,1.43,3.42-.7,2.12-2.13Z"/><path class="cls-17" d="M1046,486.73c-.57-.08-1.87-7.25-2.06-8.12-.69-3.11-1.26-6.25-1.76-9.4l-2.89.8q1.6,6.06,2.76,12.22l2.9-.8-1.93-9.25c-.4-1.9-3.24-1.09-2.89.79q1.47,8,3.6,15.77a1.5,1.5,0,0,0,2.89-.8q-2.13-7.81-3.6-15.76l-2.89.79,1.92,9.26c.4,1.9,3.25,1.09,2.9-.8q-1.17-6.15-2.77-12.22c-.5-1.9-3.19-1.06-2.89.8.7,4.5,1.58,9,2.7,13.38.47,1.86.73,5.88,3.21,6.23,1.89.27,2.71-2.62.8-2.89Z"/><path class="cls-17" d="M1022.64,518.16c9.52,7.37,22.89,5.18,33.92,2.89,11.77-2.45,21.72-8.84,26.92-19.91a1.52,1.52,0,0,0-2.06-2.06,49,49,0,0,0-18.5,16.27c-1,1.38.84,2.56,2,2a68.68,68.68,0,0,0,12-6.57,1.56,1.56,0,0,0,.54-2.05l-2-4.15c-.54-1.14-2-.8-2.59,0a10.64,10.64,0,0,0-2,4.35,1.51,1.51,0,0,0,2.51,1.46,32.63,32.63,0,0,0,5.45-7.95c.84-1.72-1.74-3.25-2.6-1.51a29.17,29.17,0,0,1-5,7.33l2.5,1.46a6.37,6.37,0,0,1,1.72-3.63H1073l2,4.15.53-2.05a69.62,69.62,0,0,1-12,6.57l2,2.05a45.78,45.78,0,0,1,17.43-15.19l-2-2.05c-4.59,9.77-13,15.65-23.35,18.14-9.91,2.38-24.08,5-32.78-1.72-1.51-1.16-3.65.94-2.12,2.12Z"/><path class="cls-17" d="M1041.92,470.6l2.89,14.2,2.89-.8a39.67,39.67,0,0,1-1.84-7.44c-.28-1.91-3.17-1.1-2.89.79a39.77,39.77,0,0,0,1.84,7.45,1.5,1.5,0,0,0,2.89-.8l-2.89-14.2c-.38-1.89-3.27-1.09-2.89.8Z"/><path class="cls-17" d="M1091,501.31a68,68,0,0,0,17.83-28.42A364,364,0,0,0,1119.59,433c.4-1.88-2.49-2.69-2.89-.8-2.64,12.31-5.81,24.5-9.66,36.48-1.78,5.55-3.61,11.16-6.43,16.29-3,5.48-7.31,9.87-11.74,14.22-1.38,1.35.74,3.47,2.12,2.12Z"/><path class="cls-17" d="M944.56,452c7.43,24.75,22.12,48.1,44.23,62.14,1.64,1,3.14-1.56,1.52-2.59-21.45-13.62-35.66-36.36-42.86-60.34-.55-1.85-3.45-1.06-2.89.79Z"/><path class="cls-17" d="M976.41,345.71a93,93,0,0,0,5.91,31.39c.67,1.79,3.57,1,2.89-.8a90.61,90.61,0,0,1-5.8-30.59c0-1.93-3-1.93-3,0Z"/><path class="cls-17" d="M1057.22,367.32a68.12,68.12,0,0,0-5.8-28.84c-.78-1.76-3.36-.24-2.59,1.51a64.51,64.51,0,0,1,5.39,27.33c0,1.93,3,1.93,3,0Z"/><path class="cls-17" d="M1034.54,316.58a49.41,49.41,0,0,0,.8-22.81c-.36-1.89-3.25-1.09-2.89.8a45.82,45.82,0,0,1-.81,21.21,1.51,1.51,0,0,0,2.9.8Z"/><path class="cls-9" d="M996.2,344c2-.5,4.21,1.46,5.86,2.24,1.14.54,2.34.95,3.51,1.43,3.62,1.48,6.54,3.3,7.7,7.24a1.51,1.51,0,0,0,3-.4c-.11-6.28-5.39-16.81-12.79-10.86-1,.79-.26,2.14.67,2.51a24.44,24.44,0,0,0,5,1.42,1.51,1.51,0,0,0,1.16-2.74,98,98,0,0,0-8.92-6.08,1.51,1.51,0,0,0-2.2.89c-.49,1.86.7,2.78,2,3.91,2.78,2.4,5.72,4.63,8.58,6.94,1.49,1.2,3.62-.91,2.12-2.13-1-.79-10-7.16-9.83-7.92l-2.2.9a96.5,96.5,0,0,1,8.91,6.08l1.16-2.74a24.71,24.71,0,0,1-5.06-1.42l.67,2.5c5.2-4.18,7.6,5.66,7.66,8.74l2.95-.4a13.31,13.31,0,0,0-7.74-8.49c-2.71-1.22-5.36-2.39-8-3.72a6.58,6.58,0,0,0-5-.79c-1.87.48-1.07,3.37.8,2.89Z"/><path class="cls-9" d="M1024.83,355.63c-.94-2.91-4.39-9.29-2.58-12.21,1.33-2.16,6.15-4.28,8.29-5.5,4.21-2.4,8.73-3.9,10.93-8.53.83-1.73-1.76-3.25-2.59-1.51-2.94,6.18-12.71,8.31-17.81,12.64s-.77,10.81.86,15.91c.59,1.83,3.49,1.05,2.9-.8Z"/><path class="cls-9" d="M1025.36,355.93c-.31-8.64,9.17-19,17.29-21.38,1.85-.55,1.06-3.45-.79-2.9-5.48,1.63-9.5,5.72-13.28,9.82s-6.43,8.62-6.22,14.46c.07,1.93,3.07,1.94,3,0Z"/><path class="cls-9" d="M1023.12,349.85a139.57,139.57,0,0,0,11-11.2,1.51,1.51,0,0,0-1.82-2.35c-5.49,3-14.54,5.57-11.16,13.43.67,1.55,2.64.5,2.8-.75a26.94,26.94,0,0,1,1.69-6.5l-2.95-.4.11,2.07a1.52,1.52,0,0,0,2.25,1.3,26.14,26.14,0,0,0,11.77-11.25,1.51,1.51,0,0,0-2.36-1.82,54.32,54.32,0,0,1-7.45,6.43,21,21,0,0,0-4.71,3.88,9.18,9.18,0,0,0-1,10.11c.9,1.7,3.49.19,2.59-1.52-2.45-4.65,1.8-7.85,5.15-10.25a55.89,55.89,0,0,0,7.55-6.53l-2.35-1.82a23.41,23.41,0,0,1-10.69,10.18l2.26,1.29-.11-2.07a1.51,1.51,0,0,0-3-.4,30.56,30.56,0,0,0-1.79,7.3l2.79-.76c-2-4.66,6.84-7.58,10.08-9.33l-1.82-2.36a137.77,137.77,0,0,1-11,11.2c-1.43,1.3.7,3.42,2.12,2.12Z"/><path class="cls-9" d="M1012,345.5a9.41,9.41,0,0,1-5-2.5c-1.42-1.3-3.54.81-2.12,2.13a12.31,12.31,0,0,0,6.33,3.27c1.89.3,2.7-2.59.8-2.9Z"/><path class="cls-17" d="M1000.36,289.8a29.2,29.2,0,0,0,4.64,10.42,1.52,1.52,0,0,0,2.8-.76,26.73,26.73,0,0,0-1.38-11.26c-.63-1.82-3.53-1-2.89.79a24.67,24.67,0,0,1,1.27,10.47l2.79-.76a26.61,26.61,0,0,1-4.33-9.7c-.44-1.88-3.33-1.09-2.9.8Z"/><path class="cls-9" d="M1003.52,284.73l1.05,11,2.95-.4c-1.13-4-2.49-8.71-6.47-10.69a1.5,1.5,0,0,0-1.82,2.35,31.84,31.84,0,0,1,5.59,9.08c.59,1.44,3,1.44,2.95-.4a17.77,17.77,0,0,1,2-9.41c.93-1.69-1.66-3.21-2.59-1.51a20.72,20.72,0,0,0-2.41,10.92l3-.4a36.57,36.57,0,0,0-6.37-10.4l-1.82,2.36c3.24,1.61,4.19,5.71,5.1,8.9.44,1.56,3.11,1.34,2.94-.4l-1.05-11c-.18-1.91-3.18-1.92-3,0Z"/><path d="M848.43,576l2.44.29-2.1,18,8.08.94-.26,2.19-10.51-1.22Z"/><path d="M866.74,598.62l0-1.86h-.08a5,5,0,0,1-4.41,1.68,4,4,0,0,1-3.66-4.66c.41-3.51,3.55-5.1,8.79-4.46l0-.3c.14-1.2.09-3.4-2.69-3.72a6.46,6.46,0,0,0-3.66.67l-.36-1.81a8.07,8.07,0,0,1,4.61-.77c4.15.48,4.81,3.63,4.47,6.55l-.63,5.44a20.88,20.88,0,0,0-.18,3.51Zm.5-7.47c-2.68-.37-5.8-.22-6.13,2.61a2.28,2.28,0,0,0,2,2.79,3.42,3.42,0,0,0,3.56-2,2.74,2.74,0,0,0,.24-.82Z"/><path d="M877.78,580.93l-.48,4.18,3.53.41-.24,2-3.53-.41-.91,7.84c-.21,1.8.15,2.88,1.52,3a5.17,5.17,0,0,0,1.45,0l-.12,2a5.61,5.61,0,0,1-2.23.11,3.34,3.34,0,0,1-2.53-1.42,5.72,5.72,0,0,1-.51-3.9l.92-7.93-2.1-.25.23-2,2.1.25.41-3.49Z"/><path d="M887.06,582l-.48,4.18,3.53.41-.23,2-3.54-.41-.91,7.84c-.21,1.8.15,2.88,1.52,3a5.17,5.17,0,0,0,1.45,0l-.12,2a5.58,5.58,0,0,1-2.22.11,3.36,3.36,0,0,1-2.54-1.42,5.72,5.72,0,0,1-.51-3.9l.92-7.93-2.1-.25.23-2,2.11.25.4-3.49Z"/><path d="M893.19,594.81c-.36,3.58,1.6,5.3,4.07,5.59a8.44,8.44,0,0,0,3.84-.31l.2,1.94a10.32,10.32,0,0,1-4.62.37c-4.18-.48-6.33-3.72-5.82-8.1s3.33-7.56,7.28-7.1c4.43.51,5.12,4.83,4.81,7.5a10,10,0,0,1-.23,1.22Zm7.45-1c.23-1.68-.14-4.37-2.92-4.69-2.49-.29-3.87,2-4.28,3.85Z"/><path d="M918.53,604.64l0-1.85h-.09a5,5,0,0,1-4.4,1.68,4,4,0,0,1-3.66-4.66c.41-3.51,3.55-5.1,8.79-4.46l0-.3c.14-1.2.09-3.4-2.69-3.72a6.46,6.46,0,0,0-3.66.67l-.36-1.81a8.07,8.07,0,0,1,4.61-.77c4.15.48,4.81,3.63,4.47,6.55l-.63,5.43a20.88,20.88,0,0,0-.18,3.51Zm.5-7.46c-2.68-.37-5.8-.22-6.13,2.61a2.28,2.28,0,0,0,2,2.79,3.43,3.43,0,0,0,3.56-2.05,3.14,3.14,0,0,0,.24-.83Z"/><path d="M925.7,595.34c.2-1.71.34-3.19.41-4.55l2.16.25L928,593.9l.12,0a4.16,4.16,0,0,1,4.12-2.75,2.25,2.25,0,0,1,.69.17l-.29,2.49a4,4,0,0,0-.83-.18c-1.74-.21-3.13,1.06-3.7,3a8.34,8.34,0,0,0-.26,1.22l-.9,7.75-2.44-.29Z"/><path d="M939.52,588.12l-.48,4.17,3.53.41-.23,2-3.54-.41-.91,7.84c-.21,1.8.15,2.88,1.52,3a5.07,5.07,0,0,0,1.45,0l-.11,2a5.88,5.88,0,0,1-2.23.1,3.33,3.33,0,0,1-2.54-1.42c-.61-.86-.71-2.18-.51-3.89l.92-7.93-2.1-.25.23-2,2.11.24.4-3.48Z"/><rect class="cls-2" x="1313" y="378" width="500" height="602" transform="translate(-97.18 294.53) rotate(-10.44)"/></g><g id="Layer_8" data-name="Layer 8"><rect class="cls-18" x="1327.33" y="401.34" width="449" height="412" transform="translate(-84.38 291.32) rotate(-10.44)"/><path d="M1784.26,668.33q-5.37-11.52-9.62-23.51c-.64-1.8-3.54-1-2.89.8q4.38,12.36,9.92,24.23c.81,1.75,3.4.23,2.59-1.52Z"/><path d="M1784.24,669.3c-8.86-11.29-9.12-27.33-20.7-36.79a1.51,1.51,0,0,0-2.36,1.82c2.24,4.93,4.56,9.85,7.85,14.18,3.85,5.08,8.3,9.54,11.5,15.11a1.5,1.5,0,0,0,2.59-1.52c-2.73-4.75-6.27-8.74-9.73-12.94-4.12-5-7-10.49-9.62-16.35l-2.36,1.82c11.41,9.32,11.9,25.57,20.71,36.79,1.19,1.52,3.3-.62,2.12-2.12Z"/><path d="M1775.87,655.26a92.3,92.3,0,0,0,6,16.07c.83,1.74,3.42.22,2.59-1.51a87.57,87.57,0,0,1-5.65-15.36,1.5,1.5,0,0,0-2.89.8Z"/><path class="cls-17" d="M1810.27,757.42a4.85,4.85,0,0,1,.07-2.26c-6.32-25.75-10.58-52-15.65-78-29.15-32.44-75.35-49.34-123.07-40.55-71.43,13.16-119.18,78.87-106.67,146.77a119.23,119.23,0,0,0,9.71,29.91q40.18-8.07,80.43-15.83c52.34-10,104.76-19.6,157.3-28.49Z"/><path class="cls-9" d="M1777.77,769.56c.71.9,1.37,1.84,2,2.8a1.53,1.53,0,0,0,2,.53,1.51,1.51,0,0,0,.54-2c-.79-1.17-1.62-2.3-2.49-3.4a1.5,1.5,0,0,0-2.12,0,1.54,1.54,0,0,0,0,2.12Z"/><path class="cls-9" d="M1800.7,723.3l-6.06,2.62c-1.77.76-.24,3.35,1.51,2.59l6.07-2.62c1.77-.76.24-3.34-1.52-2.59Z"/><path class="cls-9" d="M1786.38,732.08c5.37-.48,10.34-2.22,15.42-3.93,1.82-.62,1-3.52-.8-2.9-4.79,1.62-9.55,3.37-14.62,3.83-1.91.17-1.93,3.17,0,3Z"/><path class="cls-9" d="M1761,735.13c.41,1.23,1.13,3.06,2.35,3.71,1.9,1,3-1.55,3.71-2.8a1.51,1.51,0,0,0-.54-2,3.84,3.84,0,0,0-1.18-.45v2.89a5.94,5.94,0,0,1,1.17-.31,1.54,1.54,0,0,0,1.5-1.5,1.52,1.52,0,0,0-1.5-1.5,9.25,9.25,0,0,0-2,.42c-1.28.44-1.57,2.6,0,2.89a1,1,0,0,1,.46.15l-.54-2.05a8.07,8.07,0,0,1-1.21,1.93l1.06-.44-.21,0,.76.21c.17.1-.08-.15-.11-.2s-.25-.38-.37-.58a7.72,7.72,0,0,1-.5-1.14c-.61-1.82-3.51-1-2.89.8Z"/><ellipse class="cls-9" cx="1781.59" cy="750.57" rx="12" ry="19" transform="translate(-106.53 335.34) rotate(-10.44)"/><path class="cls-9" d="M1802.13,741.92c-7,2.59-11.78,11.11-12.91,22q9.54-1.63,19.09-3.24Q1805,751.37,1802.13,741.92Z"/><path class="cls-9" d="M1794.16,712.37c-2.41,1.18-3.86,2.67-3.62,4s2.33,2.29,5.22,2.48C1795.22,716.7,1794.68,714.54,1794.16,712.37Z"/><ellipse class="cls-9" cx="1772.22" cy="741.11" rx="8.5" ry="9" transform="translate(-104.97 333.48) rotate(-10.44)"/><path class="cls-9" d="M1607.22,804.74l-1.58-5.11a1.5,1.5,0,0,0-2.89.8c.33,1.66.72,3.32,1.15,5a1.5,1.5,0,0,0,2.89-.8q-.64-2.46-1.15-5l-2.89.8,1.58,5.11c.57,1.84,3.46,1.05,2.89-.8Z"/><path class="cls-9" d="M1609.15,803.81a7.31,7.31,0,0,0-1.7-3.51c-.83-.89-2.72-.25-2.57,1.06s.31,2.52.49,3.77a1.5,1.5,0,0,0,1.84,1,1.54,1.54,0,0,0,1-1.85c-.14-1-.26-2-.38-3l-2.56,1.06a4.4,4.4,0,0,1,.94,2.19,1.5,1.5,0,1,0,2.89-.8Z"/><path class="cls-9" d="M1610.58,804.2c-3.65-9.77-10.61-18-12.92-28.31l-2.89.8a89.39,89.39,0,0,0,7.47,20c.79,1.53,3.18.46,2.74-1.16l-4.39-16.38a1.51,1.51,0,0,0-2.95.4,95.74,95.74,0,0,0,4.78,25.91c.58,1.83,3.47,1,2.89-.8a93.05,93.05,0,0,1-4.67-25.11l-3,.4,4.4,16.38,2.74-1.15a86.43,86.43,0,0,1-7.17-19.31c-.46-1.88-3.31-1.08-2.89.8,2.31,10.34,9.26,18.51,12.91,28.31.67,1.79,3.57,1,2.9-.8Z"/><path class="cls-9" d="M1555.19,756.81q3.16,14.06,5.51,28.28l2.89-.8c-1.32-7.77-4.6-23.62,5.4-27,1.3-.44,1.55-2.58,0-2.9-3-.63-8-1.36-10.47,1.06-2.7,2.61-.94,7.25-.4,10.36.25,1.46,2.59,1.4,2.89,0s.29-3.5,1-4.79c1.75-3.2,5.55-4.56,8.84-5.48,5.47-1.52,12.09-3.36,14.68,3.33,2.92,7.52,3.85,15.11,9,21.64,1,1.31,2.74-.16,2.51-1.45A36.15,36.15,0,0,0,1577.73,753l-.35,2.74c4.27-1.37,4.34,10.53,7.12,13A1.52,1.52,0,0,0,1587,768c1.15-6.14-2-11.22-3.1-17.13-.34-1.92-3.16-1.07-2.89.8,2.91,20.37,13.08,38.54,26.36,54,1.26,1.46,3.37-.67,2.12-2.13-13-15.07-22.75-32.79-25.59-52.66l-2.89.8c.92,5.2,4.11,10.12,3.1,15.54l2.51-.67c-3.91-3.4-1.4-16.5-10.05-13.72a1.52,1.52,0,0,0-.36,2.74,33.35,33.35,0,0,1,17.94,24.27l2.51-1.46c-4.47-5.66-6-12.81-8-19.58-1.25-4.23-3.92-7.3-8.54-7.78-4.46-.47-10.1,1.27-14.11,3-5.68,2.49-6.66,5.2-7.87,11H1561c-.39-2.28-1.59-4.92,0-6.79s4.72-1.44,7.17-.93v-2.9c-12.18,4.11-9.14,21-7.49,30.69.32,1.9,3.2,1.09,2.89-.8q-2.34-14.22-5.51-28.28c-.42-1.88-3.31-1.08-2.89.8Z"/><path class="cls-17" d="M1564.87,749.83l-15.54,2.87.8,2.89a39.31,39.31,0,0,0,11.36-4.62,1.51,1.51,0,0,0-.75-2.79,8.09,8.09,0,0,0-2.54.36c-.42.14-.84.28-1.26.44a2.25,2.25,0,0,1-2,.09,1.51,1.51,0,0,0-.8-2.9,3,3,0,0,0-1.67,4.54c2,3.07,5.64.45,8.29.47l-.76-2.8a36.82,36.82,0,0,1-10.65,4.32c-1.9.44-1.08,3.24.8,2.89l15.53-2.87c1.9-.35,1.1-3.24-.79-2.89Z"/><path class="cls-17" d="M1741.11,620.23l-10.74,1,.4,2.95a96.48,96.48,0,0,1,11.87-2.79c1.49-.25,1.36-2.56,0-2.89l-8.86-2.19.36,2.74c3.41-1.88,7.81-.72,11.47-.29,4.86.57,9.43.8,13.28,4.13,5.89,5.11,10.41,12.26,14.18,19,.94,1.68,3.53.17,2.59-1.52-4.3-7.69-10.34-18.19-18.55-22.34-3.72-1.88-8.31-1.9-12.36-2.38s-8.26-1.32-12.12.8a1.51,1.51,0,0,0,.36,2.74l8.85,2.19v-2.89a94.54,94.54,0,0,0-11.86,2.79c-1.55.46-1.36,3.1.39,2.94l10.74-1c1.91-.17,1.93-3.17,0-3Z"/><ellipse class="cls-17" cx="1754.64" cy="665.03" rx="29" ry="47" transform="translate(-91.47 329.04) rotate(-10.44)"/><ellipse class="cls-17" cx="1571.63" cy="717.57" rx="44" ry="33" transform="translate(-104.03 296.74) rotate(-10.44)"/><path class="cls-19" d="M1393.62,637.71a5.81,5.81,0,0,0-1.33,6.06c.55,1.52,3,1.39,2.94-.4a8.39,8.39,0,0,0-2.3-5.91c-.14-.15-.28-.3-.43-.44l-.07.38c.16.24.72-.08.62.56-.29,1.89,2.6,2.71,2.9.8a3.66,3.66,0,0,0-1.25-3.64,3.53,3.53,0,0,0-4.32,0,2.47,2.47,0,0,0-.36,3.54,19.85,19.85,0,0,1,1.51,1.89,5.67,5.67,0,0,1,.7,2.79l3-.39a2.85,2.85,0,0,1,.57-3.15c1.32-1.4-.79-3.52-2.13-2.12Z"/><path class="cls-19" d="M1436.39,808.59c-27.37,5-52.16,12.59-71.92,21.26q2,11.71,3.82,23.45c23.36-4.06,46.73-7.95,70-12.77a4.56,4.56,0,0,1,3.31-2.26c14.93-2.76,29.86-5.51,44.83-8.1q11.05-1.92,22.13-3.7c.76-.13,1.52-.24,2.28-.34,3.19-.64,6.39-1.27,9.58-1.92l42-8.45C1543.63,801.63,1493.28,798.11,1436.39,808.59Z"/><path class="cls-19" d="M1362.35,817.41q1.76,10.19,3.45,20.38c4.88-4,7.37-8.07,6.68-11.83S1368.14,819.39,1362.35,817.41Z"/><path class="cls-19" d="M1384.42,750a261.88,261.88,0,0,0-32.85,8.26c6,31.59,11.73,63.23,16.72,95,23.36-4.06,46.73-7.95,70-12.77a4.56,4.56,0,0,1,3.31-2.26q12.87-2.38,25.74-4.71c30.06-15.2,48.08-35,44.74-53.14C1506.73,751.63,1449.6,738,1384.42,750Z"/><path class="cls-19" d="M1338.35,673.61c13.17-2.47,24.69-9.43,36.55-15.29l-1.51-2.59a5.4,5.4,0,0,0-2.69,2.7,1.51,1.51,0,0,0,2,2.05l13.09-7.33-2.2-.89.06,3.4,2.2-.9-1.29-1.64a1.5,1.5,0,0,0-2.89.79l1,5.51c.35,1.93,3.15,1.07,2.89-.8a36,36,0,0,0-1.5-6.39,1.53,1.53,0,0,0-2.51-.66c-3.22,2.61-6.6,3.27-9.34,6.6-2.09,2.54-3.39,5.16-3.19,8.5a1.53,1.53,0,0,0,1.1,1.45,9.23,9.23,0,0,0,9.75-3.56c1.46-1.84,4.9-7.56,3.27-9.93-4-5.84-17.47,14.1-19.18,16.66a1.51,1.51,0,0,0,2,2.06c1.47-1,4.57-2.49,4.86-4.51a1.6,1.6,0,0,0-.69-1.7c-2.42-1.45-5.2,2.62-6.22,4.15a1.51,1.51,0,0,0,2,2.06A65.73,65.73,0,0,0,1385.65,654c1.06-1.62-1.53-3.13-2.59-1.52a62.06,62.06,0,0,1-18.5,18.26l2,2a9.38,9.38,0,0,1,1.8-2.25c1.11-.45,1.21-.73.31-.83L1368,668c-.13.88-2.93,2.36-3.48,2.72l2,2c3.34-5,6.81-10.27,11.63-14l2.58-1.73c.92-.32.94-.35,0-.1,0,0-1.44,2.56-1.69,3.09-1.56,3.36-4.19,6-8.2,5.18l1.1,1.44c-.46-7.59,7-9.22,11.65-13l-2.51-.66a35.13,35.13,0,0,1,1.51,6.39l2.89-.8-1-5.5-2.89.79a5.31,5.31,0,0,0,2.67,3.44,1.51,1.51,0,0,0,2.2-.9,6.15,6.15,0,0,0-.06-5,1.53,1.53,0,0,0-2.2-.9l-13.1,7.33,2.06,2.05,1.61-1.62c1.73-.87.21-3.44-1.51-2.59-11.64,5.75-22.92,12.57-35.84,15-1.89.36-1.09,3.25.8,2.89Z"/><path class="cls-19" d="M1338.52,672.17a112.31,112.31,0,0,0,38.57-13.09l-1.51-2.59a97.2,97.2,0,0,1-20.25,12l1.82,2.35a54.73,54.73,0,0,1,11.85-8.09c1.48-.76.44-3.36-1.16-2.74q-13,5-26.33,8.78a1.5,1.5,0,0,0,.8,2.89q11-2.83,22.11-4.91l-1.15-2.74a74.48,74.48,0,0,1-20.73,6.89l.8,2.89L1357,669.5a1.5,1.5,0,0,0-.8-2.89l-18.42,3.48c-1.89.36-1.09,3.25.8,2.89L1357,669.5l-.8-2.89-13.67,4.29a1.5,1.5,0,0,0,.8,2.89,77,77,0,0,0,21.44-7.19c1.61-.81.42-3-1.15-2.74q-11.16,2.07-22.12,4.91l.8,2.89q13.37-3.78,26.33-8.78l-1.16-2.74A58.43,58.43,0,0,0,1355,668.7c-1.37,1.23.38,3,1.82,2.36a97.2,97.2,0,0,0,20.25-12c1.49-1.14.23-3.56-1.51-2.59a110.08,110.08,0,0,1-37.86,12.79c-1.9.28-1.09,3.17.8,2.89Z"/><path class="cls-19" d="M1338.41,675.79c14.28-1.47,27.13-7.56,40-13.5l-2.21-.9q1.69,3.52-1.86,6.32l2.06.54a13.64,13.64,0,0,1-1.34-5.78,1.51,1.51,0,0,0-3-.4l-4.38,14.19a1.5,1.5,0,0,0,2.74,1.15l10.83-18.49-2.74-1.16a10.47,10.47,0,0,1-6.7,7.52l1.85,1c-.44-3.12,1.06-5.85,3.09-8,.35-.36,3.22-3.06,3.59-1.77.33,1.12,2.21,1.61,2.75.36,1-2.28,2-5,.51-7.21a1.53,1.53,0,0,0-2.05-.53c-14.62,6.61-28.45,14.95-44,19.18a1.5,1.5,0,0,0,.8,2.89c15.85-4.3,29.9-12.76,44.76-19.48l-2-.54c.79,1.19,0,3-.52,4.18l2.75.35c-1.06-3.69-4.14-3.12-6.77-1.16-4,3-6.39,7.51-5.71,12.48a1.51,1.51,0,0,0,1.85,1,13.51,13.51,0,0,0,8.79-9.61,1.51,1.51,0,0,0-2.74-1.16l-10.83,18.5,2.75,1.16,4.37-14.19-2.94-.4a21.55,21.55,0,0,0,1.74,7.29,1.51,1.51,0,0,0,2.06.54c3.32-2.33,4.65-5.8,3.24-9.7a1.53,1.53,0,0,0-2.21-.9c-12.35,5.7-24.77,11.68-38.48,13.09-1.9.19-1.92,3.19,0,3Z"/><path class="cls-19" d="M1370.4,665.79q-16,4.43-32.3,7.55c-1.89.36-1.09,3.25.8,2.89q16.3-3.12,32.3-7.55a1.5,1.5,0,0,0-.8-2.89Z"/><path class="cls-19" d="M1359,669.83a44.12,44.12,0,0,0-22.13,11.38c8.86,46.79,18.2,93.5,26.25,140.44a44,44,0,0,0,24.33,2.58c31-5.71,49.69-44.9,41.83-87.53S1389.92,664.12,1359,669.83Z"/><ellipse class="cls-20" cx="1433.04" cy="699.39" rx="58.5" ry="65.5" transform="translate(-103.03 271.32) rotate(-10.44)"/><ellipse class="cls-20" cx="1636.09" cy="631.46" rx="49.5" ry="44.5" transform="translate(-87.35 306.99) rotate(-10.44)"/><ellipse class="cls-9" cx="1658.63" cy="535.8" rx="30" ry="69.5" transform="translate(-69.64 309.49) rotate(-10.44)"/><polyline class="cls-20" points="1685.38 556.37 1681.24 527.98 1671.28 495.83 1664.2 482.27 1657.86 476.45 1649.54 475.46 1630.87 476.59"/><path class="cls-20" d="M1632.37,476.07l-31.35,10-19.13,40.08,2.85,39.47,6.33,34,17.14,21.24s6,5,13.07,4.71a131.1,131.1,0,0,0,16.93-2.37c4.11-.83,7.31-1.67,7.65-2.16.81-1.16,16.8-8.18,17.42-10.33.42-1.43,3.66-4.75,5.77-6.79,1-1,1.81-1.72,1.81-1.72"/><path class="cls-20" d="M1394,648.23l6.68-25.23-2.54-13.77s-3.28,9.75-8.85,1.63-2.35-12.79-2.35-12.79l-9.24-11.51-.39-13.15s.33-9.21,5-6,9.5,7.4,9.5,7.4l-2.06-14.54-4.67-33s.75-23.53,2.17-26.84-1.63-8.85,8.28-15.76,33.41-17.34,33.41-17.34,22.88-8.29,24.22-6.5,12.52-5.51,21.12,4.24c3.86,4.38,10.41,12.32,10.41,12.32l5,5.18s9.5,7.4,9.16,16.61-.18,37.66,1.53,41.41l2.28,17.88s4.19-4.84,6.88-1.27,3.08,16.72,3.08,16.72l-.77,12.35L1508.73,597s-.69,7.24-5,6l-4.3-1.24-2.82,17.81s-6.9,28.72-13,28.83c0,0-9.49,17.51-15.93,15.64,0,0-12.72,11-27.5,2.53s-30.64-22.82-30.64-22.82"/><path class="cls-21" d="M1496.09,564.23c-2,11.45-3.72,17.75-14.8,19-11.57,1.3-15.9-.21-20.6-12.47-4.53-11.79-1.29-19.83,14.25-22C1488.78,546.92,1498.43,550.82,1496.09,564.23Z"/><path class="cls-21" d="M1442.08,569.1c-2,11.45-3.73,17.75-14.8,19-11.57,1.3-15.9-.21-20.61-12.47-4.53-11.79-1.28-19.83,14.26-22C1434.76,551.79,1444.42,555.69,1442.08,569.1Z"/><path class="cls-22" d="M1443.78,561.77s12.32-3.34,13.77-2.54"/><path class="cls-22" d="M1457.48,575.41s-2.33-1.6,2.25,6.7,5.12,11.26,5.49,13.23,1.89,4.73,1.27,6.88a3.56,3.56,0,0,1-2.59,2.51"/><path class="cls-22" d="M1438.47,598.23a7.47,7.47,0,0,0,1.63,8.85l4.8,1.15,6.12-4.18s10,4.27,7.75,4.68,3.89-3.77,6.11-4.18"/><path class="cls-23" d="M1474.67,619l-6.24,10.3s-1.86,6.44-14,6.65-9,.65-10.19-.15-9-4.45-9.14-5.44-4-5.36-4-5.36"/><path class="cls-24" d="M1651.28,457.33s-12.7-2.74-15.29-.23-3.62,19-3.62,19l15.11-.76s8.23.52,10.38,1.14,11,10.17,11.93,15.09,9.71,19.56,10,26.63,7.77,31.11,5.29,39.7-7.2,21.66-7.2,21.66l-7,22.65,6.17,33.43s2.2,61.63,7.22,66.8,15.66,2.2,15.66,2.2,20.78-25.18,21.48-32.43,28.52-5.26,14.2-44.31-23.35-38.4-27.33-60-7.36-45.42-11.32-55.87-14.75-35.92-19.85-36-16-20.45-23.84-19"/><path class="cls-25" d="M1581.16,529.23s13.58-3.52,15.73-2.9,13.15-.39,18.35,5.77,6.19,6,8.08,10.71-.6,13.33-2.38,14.68-.7,7.24-12.5,9.42-14.5-1.4-14.5-1.4l-7.35-6.78Z"/><path class="cls-25" d="M1680.11,521.86s-15.7-.32-17.9.77-14.46,2.59-18.64,9.7-5.3,7.16-6.2,12.15,3.9,12.71,6.18,13.61,2.53,6.82,16,6.25,15.5-4.62,15.5-4.62l6.37-8.2Z"/><path class="cls-26" d="M1621.71,539.56s6.26-3.32,18.37-1.68"/><path class="cls-22" d="M1626.86,528.94a34.62,34.62,0,0,1,4,21.64c-1.76,12.52-4.71,13.07-4.71,13.07s-8.85,1.63-4.63,8"/><path class="cls-27" d="M1614.31,588.5a7.89,7.89,0,0,0,6.27,5.66c5.28,1.06,14.49,1.4,16.46,1s11.8-2.17,12.42-4.32a58.87,58.87,0,0,1,2.85-6.63"/><path class="cls-22" d="M1649.13,566.53s-.72,11.4,10.54,11.38,8.16-1.51,8.16-1.51"/><path class="cls-22" d="M1606.78,585.52s-4.19,4.84-.77,12.34,4.76,9.29,4.76,9.29"/><path class="cls-22" d="M1731.2,616.69c9.08-2.79,20-3.32,28.31,1.87,9.39,5.83,16.63,15.61,23,24.47,1.85,2.59,2.61,5,4,7.72s4,4.68,5.55,7.4"/><path class="cls-22" d="M1748.31,707.89c4.58,8.31,4.24,17.52,10.61,24.48a59.48,59.48,0,0,0,42-9.49"/><path class="cls-22" d="M1760.26,734.16c6.48,13,13.75,24.92,19.36,37.93"/><path class="cls-22" d="M1554.89,755.5l22.51-3.91,9.83-1.81s4.22,6.34,2.48-8.59"/><path class="cls-22" d="M1584.64,752.29a275.09,275.09,0,0,1,24.86,52.07"/><path class="cls-22" d="M1604.13,786.32s4,21.64,22.13,15.24,21.53-10.07,21.53-10.07"/><path class="cls-22" d="M1692.49,780.21c26.37-5.88,12.78-2.36,34.42-6.35s24.74-14.72,24.74-14.72"/><path class="cls-27" d="M1612.42,588.54s16.72-3.08,17.16-6.21,5.46,2,5.46,2l3.21-4.66s11.1,5.07,14.06,4.52l-10.82,2-9.84,1.81Z"/><path class="cls-8" d="M1614.84,642.71a25.5,25.5,0,0,0-1.81-8.07c-1.39-3.31-4.09-5.85-5.34-9.19L1605,626.6a6.82,6.82,0,0,0,2,2.33,1.52,1.52,0,0,0,2.51-.66,10,10,0,0,0-.07-4.87l-2.89.79a30.68,30.68,0,0,1,1.52,7.48l1.9-1.45c-.17,0-1.32-.93-1.45-1a1.48,1.48,0,0,0-1.52,0c-2.73,2-1.39,6.45-1.27,9.46a1.52,1.52,0,0,0,2.56,1.06,5.15,5.15,0,0,0,2-5l-2.94.39a176.15,176.15,0,0,1,5,23.18c.28,1.9,3.17,1.09,2.89-.8a174.41,174.41,0,0,0-5-23.17c-.45-1.56-3.15-1.34-3,.4l-1.11,2.89,2.56,1.06c-.05-1.07-.82-4.82-.52-5.56s-.44-.37,1,0a1.51,1.51,0,0,0,1.9-1.44,34.34,34.34,0,0,0-1.63-8.27,1.5,1.5,0,0,0-2.89.79l.06,3.28,2.51-.66-1.5-1.72c-.86-1.37-3.36-.51-2.74,1.15,2.23,6,6.51,9.63,7,16.47.15,1.91,3.15,1.92,3,0Z"/><path class="cls-8" d="M1605.47,634.24l-.91,2.78a3.47,3.47,0,0,0-.28,2.52,2.07,2.07,0,0,0,1.88,1.13c.95.1,1.91.13,2.86.2,1.93.14,1.92-2.86,0-3a13.62,13.62,0,0,1-2.84-.23l.66.38-.13-.12.38.66,0-.24v.79c.33-1.37.87-2.72,1.31-4.07.61-1.84-2.29-2.63-2.89-.8Z"/><path class="cls-8" d="M1606.81,636.31a13.73,13.73,0,0,0-5.64,6.34l2.74,1.16c1.24-6.06,6.36-10.33,7.67-16.4.41-1.88-2.48-2.68-2.89-.79-1.31,6-6.42,10.3-7.67,16.39-.32,1.55,2,2.8,2.74,1.15a11.07,11.07,0,0,1,4.56-5.26c1.65-1,.14-3.6-1.51-2.59Z"/><path class="cls-24" d="M1608.5,620.79s21.43,38.54,2.48,49.37"/><path class="cls-28" d="M1431.21,626s15.19-5.85,17-7.2,6.26.88,6.26.88,4.56-2.87,5.54-3.05,2.33,1.6,8.59,2.48,6.09-.1,6.09-.1-8.49,3.59-12.43,4.32l-15.73,2.9Z"/><ellipse class="cls-19" cx="1394.41" cy="718.71" rx="21" ry="62.5" transform="translate(-107.17 264.63) rotate(-10.44)"/><ellipse class="cls-19" cx="1427.37" cy="756.87" rx="11.5" ry="64" transform="translate(-113.54 271.24) rotate(-10.44)"/><path class="cls-19" d="M1438.25,840.53a4.56,4.56,0,0,1,3.31-2.26q11.54-2.13,23.07-4.23c4.59-14.78,5.25-36.86.83-60.8-7.5-40.74-26.8-71.32-43.09-68.32s-23.42,38.46-15.91,79.19c4.6,25,13.65,46.14,23.71,58.08C1432.86,841.65,1435.56,841.09,1438.25,840.53Z"/><ellipse class="cls-19" cx="1460.53" cy="749.24" rx="15.5" ry="39.5" transform="translate(-111.61 277.12) rotate(-10.44)"/><path class="cls-19" d="M1486.39,830.17q11.05-1.92,22.13-3.7l2.22-.33,9.64-1.93,10.43-2.1c3.25-11.9,3.82-26.71,1-42.28-6.36-34.49-27.14-59.57-46.42-56s-29.76,34.39-23.41,68.88c2.86,15.47,8.62,29,15.84,39Z"/><path class="cls-29" d="M1439.48,715.93c.23,1.54.4,2.9.51,3.89A8.44,8.44,0,0,0,1439.48,715.93Z"/><path class="cls-29" d="M1449.32,836.84c12.35-2.27,24.7-4.53,37.07-6.67q9.7-1.7,19.45-3.26l-65.68-105.44s-.05-.63-.17-1.65c-.41,4.47-3.66,8.45-3.66,8.45l19.34,82.87Z"/><path class="cls-29" d="M1392.93,680.35c0,11.18,23.76,24.09,39,29.42,4.27,1.5,6.49,3.61,7.48,5.88,0,.09.06.19.09.28-.91-6.16-2.82-15.17-6.07-14.57-4.92.9-23.22-21.14-25.55-22.75s-19.15-43.24-19.15-43.24,2.79,9.65-5.08,11.1C1381.47,646.87,1392.91,672.24,1392.93,680.35Z"/><path class="cls-19" d="M1334.93,671.17c6.14,32.73,12.58,65.41,18.71,98.14a52,52,0,0,0-18.71-98.14Z"/><path class="cls-19" d="M1375.77,659.63h.23c-.11,0-.11,0,0,0s-.11-.07.09,0a1.9,1.9,0,0,1,.33.22,1.5,1.5,0,0,0,1.52-2.59,3.52,3.52,0,0,0-3-.53,1.5,1.5,0,0,0,.79,2.89Z"/><path class="cls-19" d="M1386.27,694.38a1.5,1.5,0,0,0,0-3,1.5,1.5,0,0,0,0,3Z"/><polyline class="cls-30" points="1396.8 637.6 1388.7 635.37 1397.41 635.29"/><path class="cls-22" d="M1391.22,585.59s-6.41,5.38-4.09,6.7,2.88.48,2.88.48"/><ellipse class="cls-8" cx="1436.56" cy="486.73" rx="42.5" ry="17" transform="translate(-64.43 268.43) rotate(-10.44)"/><ellipse class="cls-8" cx="1478.83" cy="492.67" rx="14" ry="9.5" transform="translate(-64.8 276.19) rotate(-10.44)"/><ellipse class="cls-8" cx="1391.05" cy="512.91" rx="3" ry="7.5" transform="translate(-69.92 260.62) rotate(-10.44)"/><ellipse class="cls-8" cx="1397.85" cy="497.42" rx="6.5" ry="11.5" transform="translate(-67 261.59) rotate(-10.44)"/><ellipse class="cls-8" cx="1395.24" cy="508.07" rx="5" ry="7.5" transform="translate(-68.98 261.3) rotate(-10.44)"/><ellipse class="cls-8" cx="1457.99" cy="470.58" rx="15.5" ry="5" transform="translate(-61.14 272.05) rotate(-10.44)"/><ellipse class="cls-8" cx="1459.23" cy="466.29" rx="9.5" ry="4" transform="translate(-60.34 272.2) rotate(-10.44)"/><ellipse class="cls-8" cx="1445.15" cy="469.9" rx="12" ry="7" transform="matrix(0.98, -0.18, 0.18, 0.98, -61.23, 269.71)"/><ellipse class="cls-8" cx="1494.23" cy="498.98" rx="2" ry="7.5" transform="translate(-65.69 279.09) rotate(-10.44)"/><ellipse class="cls-8" cx="1482.38" cy="498.12" rx="11.5" ry="2.5" transform="translate(-65.73 276.93) rotate(-10.44)"/><ellipse class="cls-8" cx="1487.88" cy="497.61" rx="3" ry="10" transform="translate(-65.55 277.91) rotate(-10.44)"/><ellipse class="cls-8" cx="1490.75" cy="502.17" rx="2" ry="8" transform="translate(-66.33 278.51) rotate(-10.44)"/><ellipse class="cls-8" cx="1467.74" cy="493.19" rx="16" ry="8" transform="translate(-65.08 274.19) rotate(-10.44)"/><ellipse class="cls-8" cx="1407.52" cy="500.22" rx="15.5" ry="8" transform="translate(-67.35 263.39) rotate(-10.44)"/><ellipse class="cls-8" cx="1477.64" cy="480.69" rx="4" ry="8.5" transform="translate(-62.65 275.78) rotate(-10.44)"/><ellipse class="cls-8" cx="1487.79" cy="497.12" rx="9" ry="6.5" transform="translate(-65.46 277.89) rotate(-10.44)"/><path class="cls-22" d="M1421.71,618.61s-4.19,4.84-.77,12.34,4.76,9.29,4.76,9.29"/><path class="cls-24" d="M1629.11,458.36s-22.88,8.29-31.37,11.89-21.4,27.33-21.4,27.33l-10.63,41.61-7.4,48.14-1.16,37.84s.78,26.29.34,29.43S1544.67,691,1544.67,691s5.88,19.83,12.51,22.68,3.24,6.52,12.09,4.89,25.2-6.68,25.2-6.68,7.66-13.61,8.18-21.84,2.77-1.53,1.84-17.63,3.72-51.53,3.72-51.53-14.7-13.56-17.14-21.24-6.7-36.39-6.7-36.39L1582.22,524s10.84-29.45,13.17-27.85c0,0,2.92-11.72,18.47-15.61s18.51-4.42,18.51-4.42,3.36-14.86,1-16.46A6.18,6.18,0,0,0,1629.11,458.36Z"/><ellipse class="cls-8" cx="1607.84" cy="651.93" rx="7" ry="17.5" transform="translate(-91.53 302.21) rotate(-10.44)"/><ellipse class="cls-8" cx="1604.7" cy="632.17" rx="6.5" ry="10.5" transform="translate(-88 301.32) rotate(-10.44)"/><circle class="cls-8" cx="1604.46" cy="661.19" r="5"/><circle class="cls-8" cx="1605.8" cy="624.34" r="3"/><path class="cls-8" d="M1605.9,667l3.12.28a1.51,1.51,0,0,0,1.5-1.5,1.53,1.53,0,0,0-1.5-1.5l-3.12-.28a1.51,1.51,0,0,0-1.5,1.5,1.53,1.53,0,0,0,1.5,1.5Z"/><path class="cls-17" d="M1792.71,667.3l-.24-.57c-8.93-20.2-20.91-34.49-26.77-31.9s-3.36,21.06,5.56,41.27S1792.17,710.59,1798,708a4.35,4.35,0,0,0,2.06-2.16C1797.69,693,1795.34,680.11,1792.71,667.3Z"/><path class="cls-17" d="M1741.86,621.61l2.07,0a1.5,1.5,0,0,0,0-3l-2.07,0a1.5,1.5,0,0,0,0,3Z"/><path class="cls-8" d="M1388.64,530a140.68,140.68,0,0,1,11.55-24.9c3.06-5.23,7.36-12.23,3.5-18.19-2.53-3.92-7.39-4.11-10.71-1-5.23,4.89-5.69,14.91-5.77,21.57l3-.4c-.59-4.13,1.65-7.6,3.86-10.82l-2.75-1.16c-3.86,10.62-1.59,22.31-5.77,32.83l3,.4.58-19.75a1.5,1.5,0,0,0-2.94-.4,43.08,43.08,0,0,0,.29,23.19,1.52,1.52,0,0,0,2.51.66c2.93-2.32,3.41-5.49,4.46-8.88,1.75-5.64,5.67-9.24,10.08-12.9a1.51,1.51,0,0,0-1.06-2.56,4.61,4.61,0,0,0-4.25,2.55,15,15,0,0,0-1,3.6,14.4,14.4,0,0,1-4,6.73l2.5,1.46c1.28-4,3.54-9.07,7.33-11.43s9.8-2.71,14-3.52q13.55-2.62,27.29-4c14.72-1.49,33.49-4.53,46.1,5.17l.36-2.74c-5.76,1.19-10.34-4.9-16.3-4.3l.4,2.94c6.75-1,17.39,4.26,20.43,10.66.64,1.35,2.85.68,2.79-.76a53.41,53.41,0,0,0-1.79-11.65,1.52,1.52,0,0,0-2.9,0,9.43,9.43,0,0,0-.4,6.22l2.89-.79a27.44,27.44,0,0,1-1.39-5.7l-2.8.76a46.64,46.64,0,0,0,3.81,7.15,1.51,1.51,0,0,0,2.59,0c2.44-4.74,1-10.62-.66-15.45a18.16,18.16,0,0,0-4-6.48c-2.29-2.51-3.63-5.45-5.78-8-1.48-1.73-3.92-2.33-4.92.31-2.08,5.5,7.5,5.14,8.6,8.52l2.51-1.46a202.53,202.53,0,0,1-21.06-23.43,1.52,1.52,0,0,0-2.74.36c-3,9.91,8.55,13.75,12.79,20.66a1.5,1.5,0,0,0,2.59-1.52c-6.16-12.37-19.8-31.1-35.76-21.62-1,.61-1,2.51.36,2.74,4.21.73,7.82-1.26,12-1.21,7.3.1,9.47,5.64,10.47,11.92.27,1.7,3,1.25,3-.4,0-4.22-.25-9.17-3.92-12-4.26-3.23-11.89-2.35-16.86-2.15a66.17,66.17,0,0,0-36,12.49c-1.54,1.11-.16,3.63,1.51,2.59a33.07,33.07,0,0,1,14.81-5l-.4-2.95c-6.61,2-13.67,2.9-20.18,5.14-5.87,2-11.32,5.83-16.73,8.85a1.52,1.52,0,0,0,0,2.59l.87.54c1.65,1,3.16-1.57,1.52-2.59l-.87-.54v2.59c5.6-3.13,11.37-7.27,17.58-9s12.47-2.81,18.61-4.67c1.55-.47,1.35-3.1-.4-2.94a36.33,36.33,0,0,0-16.32,5.41l1.51,2.59a64.11,64.11,0,0,1,26.7-11.3,74.74,74.74,0,0,1,14.72-.75c3.74.11,7.83.22,9.84,3.89,1.15,2.1,1,4.87,1,7.19l2.95-.39c-.83-5.15-2.16-10.46-7.28-12.87a14.34,14.34,0,0,0-6.09-1.26c-3.74,0-7.53,2-11.22,1.32l.35,2.74c14.32-8.5,26.29,9.77,31.66,20.55l2.59-1.52c-3.53-5.75-14.89-10.35-12.49-18.34l-2.74.36a207.06,207.06,0,0,0,21.53,24,1.51,1.51,0,0,0,2.51-1.46,6,6,0,0,0-3.37-3.89c-.62-.32-4.55-1.83-5-1.39a29.84,29.84,0,0,0,2.23,3.81c1.74,2.46,4.34,4.15,5.75,6.86,2,3.86,3.71,11,1.7,15h2.59a47.59,47.59,0,0,1-3.81-7.15c-.57-1.34-3-.69-2.79.75a31.51,31.51,0,0,0,1.5,6.49,1.5,1.5,0,0,0,2.89-.79,5.83,5.83,0,0,1,.41-4.64h-2.9a49.42,49.42,0,0,1,1.69,10.86l2.8-.75c-1.95-4.11-6.79-7.12-10.6-9.33a19.53,19.53,0,0,0-13.22-2.71c-1.65.25-1.28,3.12.4,2.95,6.25-.63,10.63,5.53,17.1,4.19,1.41-.29,1.28-2,.36-2.74-14.39-11.06-36.78-6.93-53.38-4.94a305.75,305.75,0,0,0-30.83,5.25c-8.22,1.86-12.45,7.39-14.94,15.28a1.51,1.51,0,0,0,2.51,1.46,17,17,0,0,0,3.76-5.12c.71-1.55,1.11-6.75,3.36-6.88l-1.06-2.56c-3.47,2.88-7,5.88-9.19,9.91-2,3.8-1.82,9.07-5.35,11.87l2.51.66A39.89,39.89,0,0,1,1389,509l-3-.4-.58,19.75c-.06,1.81,2.35,1.87,2.94.4,4.19-10.54,1.92-22.22,5.78-32.83.61-1.68-1.84-2.48-2.74-1.15-2.84,4.13-4.89,8-4.16,13.12.24,1.72,2.93,1.24,2.94-.39.07-5.47.52-11.87,3.12-16.82a6.37,6.37,0,0,1,3.81-3.84l4.29,2.11c1.07,1.23.79,4.29.48,5.71-.64,3-2.35,5.65-3.87,8.21a146.26,146.26,0,0,0-12.29,26.36c-.64,1.83,2.26,2.61,2.89.8Z"/><path class="cls-17" d="M1747.56,617.26a18.25,18.25,0,0,0-5-.2,1.54,1.54,0,0,0-1.5,1.5,1.52,1.52,0,0,0,1.5,1.5,15.58,15.58,0,0,1,4.15.09,1.55,1.55,0,0,0,1.85-1,1.53,1.53,0,0,0-1-1.85Z"/><path class="cls-9" d="M1566.55,814.92q19.68-4,39.37-7.86-.84-3.52-1.91-7.14c-8.41-28.32-23.86-48.72-34.51-45.56s-12.47,28.69-4.06,57C1565.79,812.57,1566.17,813.75,1566.55,814.92Z"/><path class="cls-22" d="M1386.07,534.49l15.09-21.91s4.55-2.88,8.48-3.6l21.64-4c2-.36,20.83-2.82,22-2s15.91-1.92,20.39.31,22.1,4.06,24.28,15.86"/><path class="cls-31" d="M1385.65,532.2l1.16-30.2,3.43-12.47,26.1-16.36,25-10s2-.52,11.83-2.33a34.84,34.84,0,0,1,16.93.81l13.61,15.93s9.68,8.39,11.61,10.57,2.91,4,3.41,8.52.07,21.27.07,21.27"/><path d="M1449.88,462.72c4.62-.22,9.39-.85,14-.77,3.7.06,7.3,3.4,10.3,5.74,1.5,1.17,3.64-.94,2.12-2.12-2.89-2.25-5.14-5.89-8.92-6.6-5.36-1-12,.49-17.5.75-1.92.09-1.93,3.09,0,3Z"/><path d="M1421.16,472.31a271.88,271.88,0,0,1,28.13-9.22,1.5,1.5,0,0,0-.8-2.89,269.51,269.51,0,0,0-28.13,9.22c-1.78.69-1,3.59.8,2.89Z"/><path d="M1420.05,469.35c-5.74,4-12.72,6.15-18.83,9.58-4.23,2.37-11,5.3-13.44,9.79-1.08,2-1.06,4.2-1.22,6.4-.3,3.9-.55,7.81-.83,11.71l-1.64,23.4c-.13,1.92,2.87,1.92,3,0l1.37-19.5c.43-6.19-.21-14,2.12-19.75,2.11-5.2,10.46-8.63,15.32-11.18,5.15-2.7,10.88-4.55,15.67-7.86,1.57-1.1.07-3.7-1.52-2.59Z"/><path d="M1395.72,510.31a86,86,0,0,1,32-24.61c1.32-.59.18-2.53-1.14-1.95a87.42,87.42,0,0,0-32.45,25c-.9,1.12.68,2.72,1.59,1.59Z"/><path d="M1424.78,500.34C1435,490,1445.7,479.56,1460.28,476c1.41-.34.81-2.51-.59-2.17-15,3.62-26,14.28-36.5,24.89a1.12,1.12,0,0,0,1.59,1.59Z"/><path d="M1449.21,496.49c3.54-3.1,7-6.57,10.87-9.23,4.25-2.9,9.23-4.3,14.15-5.62a1.13,1.13,0,0,0-.6-2.17c-5.1,1.37-10.26,2.87-14.68,5.85-4.07,2.74-7.64,6.36-11.33,9.58-1.09,1,.51,2.54,1.59,1.59Z"/><path d="M1470.35,498.11c3-2.08,5.87-4.22,8.86-6.25s6.15-2.13,9.58-3a1.13,1.13,0,0,0-.6-2.17c-3.24.81-6.4.79-9.29,2.63-3.31,2.13-6.47,4.56-9.69,6.83-1.17.83,0,2.78,1.14,1.94Z"/><path class="cls-9" d="M1810.27,757.42a4.85,4.85,0,0,1,.07-2.26c-2.43-9.89-4.57-19.85-6.54-29.84a25.74,25.74,0,0,0-2.9.33c-15.48,2.86-25.19,20.58-21.69,39.59a43.38,43.38,0,0,0,2.69,9q15.24-2.67,30.5-5.23Z"/><path class="cls-9" d="M1804,726.14l-2.88.5c-12.77,2.35-22.83,5.8-22.48,7.7s11,1.53,23.75-.82l3-.58Q1804.63,729.55,1804,726.14Z"/><path class="cls-9" d="M1794.81,715.05a4,4,0,0,0-1.76,3.92,4.05,4.05,0,0,0,3.54,3.14C1796,719.76,1795.39,717.4,1794.81,715.05Z"/><path class="cls-9" d="M1795.22,771.89c-.66-2.73-1.14-4.31-1.33-4.27s-.09,1.67.27,4.45Z"/><path d="M1569,697.65c11.25-10.2,9.12-25.86,6.56-39.28-.36-1.89-3.25-1.09-2.89.8,2.36,12.34,4.61,26.93-5.79,36.36-1.43,1.3.69,3.42,2.12,2.12Z"/><path d="M1595.7,659c-1.43-10.12-3-20.61-8.59-29.41-3-4.81-6.67-8.83-8.57-14.32s-2.49-11.62-3-17.5c-.18-1.9-3.18-1.92-3,0,1,10.61,2.6,20.19,9,29,7.28,10.09,9.63,20.89,11.35,33,.26,1.9,3.16,1.09,2.89-.8Z"/><path d="M1706.56,668.48a91.49,91.49,0,0,0-2.77-47c-.6-1.83-3.5-1.05-2.89.79a88.44,88.44,0,0,1,2.77,45.41c-.38,1.89,2.51,2.69,2.89.8Z"/><path d="M1694.5,649.39c-3.3-6.84-6.68-13.78-8.23-21.27-1.62-7.86-.94-15.9.61-23.7,2.66-13.45,7.45-26.39,8.48-40.14.14-1.93-2.86-1.92-3,0-1.16,15.53-7.35,30-9.39,45.42-2,15.11,2.45,27.77,8.94,41.2.84,1.74,3.43.22,2.59-1.51Z"/><path d="M1729.49,647.19a41.49,41.49,0,0,0-6.15-19.65,42,42,0,0,0-6.22-7.65c-3.07-3-6.81-5.94-6.76-10.65a1.5,1.5,0,0,0-3,0c-.06,6.2,4.74,9.73,8.69,13.83a37.9,37.9,0,0,1,10.44,24.12c.12,1.91,3.12,1.93,3,0Z"/><path d="M1678.07,493.55a123.11,123.11,0,0,0,15.26,32.69c1.06,1.61,3.66.1,2.59-1.51a120.89,120.89,0,0,1-15-32c-.55-1.85-3.45-1.06-2.89.79Z"/><path d="M1576.54,522.69a74,74,0,0,0-10.26,36.72,1.5,1.5,0,0,0,3,0,70.73,70.73,0,0,1,9.85-35.2,1.5,1.5,0,0,0-2.59-1.52Z"/><path d="M1621.91,465.8A52.48,52.48,0,0,0,1596.19,477c-1.5,1.2.63,3.31,2.13,2.12a49.65,49.65,0,0,1,24.39-10.43c1.9-.27,1.09-3.16-.8-2.9Z"/><path d="M1649.76,469a15.47,15.47,0,0,1,13.82,2.26c1.58,1.12,3.08-1.48,1.52-2.59a18.4,18.4,0,0,0-16.14-2.57c-1.84.56-1.06,3.46.8,2.9Z"/><path d="M1590.26,703.59c-3.09-7.92-7-19.41,1.88-25.19,1.61-1,.11-3.64-1.52-2.59-10.19,6.61-6.93,19.15-3.25,28.57.69,1.78,3.6,1,2.89-.79Z"/><path class="cls-19" d="M1512.36,760.21l.65-15.06a1.5,1.5,0,0,0-2.94-.39l-5.79,21.78h2.89a86.67,86.67,0,0,1-2.57-27.17h-3a61.79,61.79,0,0,1-.86,9.88h2.89a151.41,151.41,0,0,1-2.65-19.31,1.51,1.51,0,0,0-3-.4l-5.39,19.35h2.89L1492.29,735c-.36-1.53-2.43-1.31-2.89,0a136.69,136.69,0,0,0-5.28,19.68H1487l-1.82-9a1.52,1.52,0,0,0-2.9,0l-2,8.85h2.89a202.35,202.35,0,0,1-2.62-21,1.5,1.5,0,0,0-3,0L1476.17,749l2.95-.4q-3.6-16.07-6.06-32.34c-.29-1.9-3.18-1.09-2.9.8q2.47,16.28,6.07,32.34c.39,1.76,2.8,1.19,2.94-.4l1.42-15.36h-3a209.29,209.29,0,0,0,2.73,21.76c.26,1.46,2.58,1.39,2.89,0l2-8.85h-2.9l1.83,9a1.51,1.51,0,0,0,2.89,0,138,138,0,0,1,5.28-19.68h-2.89l3.24,13.86a1.51,1.51,0,0,0,2.89,0l5.4-19.35-3-.4a158.33,158.33,0,0,0,2.76,20.11c.29,1.4,2.65,1.45,2.89,0a66,66,0,0,0,1-10.68c0-1.94-2.89-1.91-3,0a89,89,0,0,0,2.68,28,1.51,1.51,0,0,0,2.89,0l5.79-21.78-3-.4-.65,15.06c-.09,1.93,2.91,1.93,3,0Z"/><path class="cls-19" d="M1469.31,710.62a111.69,111.69,0,0,1-3.43,18h2.89a22.56,22.56,0,0,1-1.68-10.44l-2.95.4a25.26,25.26,0,0,1,1.19,7.43l2.8-.76-1.42-2.11a1.52,1.52,0,0,0-2.59,0l-4.06,8.06h2.59l-4.33-8.14a1.51,1.51,0,0,0-2.74.36l-1.53,8.32,2.74-.36a22.85,22.85,0,0,1-2.28-7.8,1.5,1.5,0,0,0-3,0,25,25,0,0,0,.1,5l3-.4-1.28-3.67a1.51,1.51,0,0,0-2.9.8c.42,2.51,1.67,11.55,6.29,9.27,2.12-1,3.66-4.34,4.9-6.2a95.59,95.59,0,0,0,6.29-11,1.51,1.51,0,0,0-2-2.05c-3.26,1.94-4.89,5.34-9.08,5.75-3.77.36-7.62-1.24-11-2.64-1.42-.59-2.48,1.53-1.46,2.51,5,4.72,11.35,7,17.53,9.74q11.06,4.88,22,10.09,10.47,5,20.87,10.17,5.21,2.57,10.39,5.17c2.8,1.4,10.61,3.94,9.84,8.16l1.84-1c-9.35-3.13-17.76-8.82-26.23-13.76l-25.27-14.76c-1.2-.7-3,.81-2.06,2.05a36.82,36.82,0,0,0,19.2,13.27,1.51,1.51,0,0,0,1.46-2.51c-3.9-3.71-7.92-7.29-12.12-10.67-3.1-2.49-6.44-5.83-10.06-7.47-4.87-2.2-7.87,3.39-4.59,7,2.37,2.63,6.91,3.32,10.09,4.45,5.56,2,11.07,4.13,16.49,6.47q7.07,3.06,14,6.5c5.08,2.54,12.3,5.12,15.82,9.76l1.69-2.21a81.3,81.3,0,0,1-12.29-5.56l-1.52,2.59,8,3.75c1.74.82,3.26-1.77,1.52-2.59l-8-3.75c-1.73-.81-3.23,1.64-1.52,2.59a86.73,86.73,0,0,0,13,5.86c1.17.42,2.49-1.16,1.7-2.2-3.86-5.08-10.53-7.62-16.08-10.42q-9.88-5-20.13-9.16-5-2.06-10.14-3.91c-2-.72-4-1.38-6-2.09-1.07-.35-2.12-.74-3.15-1.19,0-2.85.71-3.38,2.25-1.57,1.63.46,4.3,3.22,5.42,4.1,1.41,1.11,2.8,2.25,4.18,3.4,3.21,2.69,6.31,5.5,9.34,8.39l1.46-2.5a33.42,33.42,0,0,1-17.41-11.89l-2,2,27,15.74c8.18,4.78,16.23,10.06,25.27,13.08a1.5,1.5,0,0,0,1.84-1c1-5.23-3.7-7.76-7.75-9.82-8.34-4.24-16.74-8.36-25.14-12.45-8.12-3.95-16.27-7.83-24.5-11.55-7.91-3.59-17.57-6.35-24-12.44l-1.45,2.51c4.11,1.69,8.68,3.38,13.19,2.56,4.19-.75,5.81-3.94,9.22-6l-2-2a95.46,95.46,0,0,1-6.29,11c-.8,1.2-2.19,4.68-4.21,3.52-1-.56-1.32-4.83-1.49-5.87l-2.9.8,1.29,3.66c.52,1.49,3.16,1.39,2.94-.39a25,25,0,0,1-.1-5h-3a28.37,28.37,0,0,0,2.69,9.32,1.52,1.52,0,0,0,2.74-.36l1.54-8.33-2.75.36,4.33,8.14a1.51,1.51,0,0,0,2.59,0l4.06-8.06h-2.59l1.42,2.11a1.51,1.51,0,0,0,2.79-.75,27.43,27.43,0,0,0-1.3-8.23,1.5,1.5,0,0,0-2.94.4,24.17,24.17,0,0,0,1.79,11.24,1.51,1.51,0,0,0,2.89,0,116.06,116.06,0,0,0,3.54-18.84c.2-1.92-2.8-1.91-3,0Z"/><path class="cls-22" d="M1383.23,647.05a169.33,169.33,0,0,1-45.56,21.85"/><path class="cls-19" d="M1513.18,826.48a14.93,14.93,0,0,0,1.86-1.07,1.51,1.51,0,0,0-1.16-2.75q-10.32,1.92-20.62,3.94c-1.89.37-1.09,3.26.8,2.89q10.31-2,20.62-3.93l-1.16-2.75a13.73,13.73,0,0,1-1.85,1.08c-1.71.9-.19,3.49,1.51,2.59Z"/><path class="cls-19" d="M1473.65,786.89l7.57-24.62h-2.89a49.24,49.24,0,0,1,1.28,16.22c-.15,1.72,2.49,2,2.94.4l4.75-16.75-2.9-.79a146.17,146.17,0,0,1-8.92,28.75l2.8.76a65.42,65.42,0,0,1,1.35-21.83h-2.89q1.85,11.4,3.24,22.86a1.5,1.5,0,0,0,3,0,40.07,40.07,0,0,1,2.56-10.13l-2.74.36a102.77,102.77,0,0,1,7.71,14.22c.64,1.45,2.75.61,2.8-.75l.17-5.68-3,.4,3.38,10.79,2.51-1.46a189.62,189.62,0,0,1-32.09-48.88c-.64-1.4-2.8-.64-2.8.76a142.46,142.46,0,0,0,3.78,32.19c.44,1.89,3.27,1.08,2.89-.8q-2.65-13.26-4.1-26.69l-2.94.39q3.22,9.2,7.25,18c.7,1.55,3.29.45,2.74-1.15L1465,755.34l-2.89.8a139.5,139.5,0,0,0,21.09,35.1c1.17,1.41,3-.39,2.36-1.82-3-6.75-6.26-13.41-9.55-20-1.64-3.3-3.3-6.59-5-9.89-1.39-2.77-2.67-6.87-4.83-9.09-1.9-1.95-4.44-2.57-6.28-4.74a56.82,56.82,0,0,1-5.43-8.51c-3.09-5.41-6.16-10.67-10.6-15.1a1.52,1.52,0,0,0-2.56,1.06c.07,1.6.48,6.56,3.44,5.25,2.72-1.2.19-5-.88-6.31a1.51,1.51,0,0,0-2.56,1.06c.4,5.9,4.07,10.12,7.75,14.45a120,120,0,0,1,13.51,20.3l2.59-1.52L1451,734.54c-.88-1.35-3.34-.52-2.75,1.16.91,2.53,1.5,5.26,2.69,7.68a47.49,47.49,0,0,0,5,7.28c3.89,5.15,7.89,10.21,11.86,15.3,8.54,10.95,16.82,22.07,23.5,34.28l2.59-1.52a46,46,0,0,0-8.48-10c-.89-.78-2.67-.33-2.56,1.06a38.23,38.23,0,0,0,3.89,14.13c.78,1.58,3.1.44,2.74-1.16a58.33,58.33,0,0,0-4.24-12.26l-2.59,1.52c5.52,11.64,11.22,23.17,19.75,33a1.51,1.51,0,0,0,2.51-1.46,65.69,65.69,0,0,0-12.81-22.63,1.51,1.51,0,0,0-2.51,1.46,160.39,160.39,0,0,0,7.64,17.29c.84,1.63,3,.4,2.75-1.16a35,35,0,0,0-2.16-7.77,1.5,1.5,0,0,0-2.89.8c1,6.33,7,9.46,9.38,15.08.77,1.77,3.35.24,2.59-1.51-2.3-5.31-8.15-8.48-9.08-14.37l-2.89.8a34.48,34.48,0,0,1,2.15,7.77l2.74-1.16a151.09,151.09,0,0,1-7.33-16.57l-2.51,1.46a61.62,61.62,0,0,1,12,21.31l2.5-1.46c-8.35-9.57-13.87-21-19.28-32.35-.83-1.74-3.41-.22-2.59,1.52a55.36,55.36,0,0,1,3.94,11.54l2.74-1.16a34,34,0,0,1-3.48-12.61l-2.56,1.06a42.75,42.75,0,0,1,8,9.37,1.5,1.5,0,0,0,2.59-1.52c-6-11.06-13.41-21.24-21.1-31.19-4-5.18-8.07-10.3-12-15.49-1.84-2.4-3.81-4.77-5.48-7.29-2-3.09-2.92-6.39-4.15-9.85l-2.74,1.16,14.19,21.8a1.5,1.5,0,0,0,2.59-1.52,137.23,137.23,0,0,0-11.15-17.45c-3.7-4.84-9.26-9.29-9.7-15.78l-2.56,1.06q3.89,2.9,2.56-1.06l-2.56,1.06c4.84,4.82,7.87,10.71,11.3,16.53a60.25,60.25,0,0,0,4.47,6.79c1.65,2.1,2.85,2.4,4.89,4,3,2.27,4.35,6.27,6,9.57s3.31,6.58,5,9.88c3.29,6.63,6.5,13.3,9.55,20.05l2.36-1.82A134.59,134.59,0,0,1,1465,755.34c-.72-1.73-3.52-1.08-2.89.8l6.13,18.17,2.74-1.16q-3.86-8.52-7-17.33c-.52-1.48-3.14-1.39-3,.4q1.49,13.85,4.21,27.49l2.89-.8a138.81,138.81,0,0,1-3.67-31.39l-2.79.75a192.48,192.48,0,0,0,32.55,49.49,1.51,1.51,0,0,0,2.51-1.46l-3.38-10.79a1.5,1.5,0,0,0-2.94.4l-.17,5.68,2.79-.76a102.31,102.31,0,0,0-7.71-14.23,1.52,1.52,0,0,0-2.74.36,43,43,0,0,0-2.67,10.93h3q-1.44-11.86-3.35-23.66c-.24-1.48-2.57-1.37-2.89,0a67.83,67.83,0,0,0-1.46,22.63c.13,1.28,2.14,2.28,2.79.76a150.51,150.51,0,0,0,9.23-29.48,1.5,1.5,0,0,0-2.9-.79l-4.74,16.74,2.95.4a51.79,51.79,0,0,0-1.39-17,1.51,1.51,0,0,0-2.89,0l-7.57,24.61c-.57,1.85,2.32,2.64,2.89.8Z"/><path class="cls-19" d="M1447.68,709.87c1.12-1.91,2.62-2.77,4.08-4.25,1.28-1.32,2.19-2.94,3.51-4.22a77.2,77.2,0,0,1,9.22-8.12c5.36-3.74,9.08-8,10.76-14.5a1.5,1.5,0,0,0-2.89-.79,20.31,20.31,0,0,1-6.17,10.38c-2.57,2.25-5.65,3.65-8,6.11s-4.85,4.63-7,7.21c-2,2.38-4.48,3.95-6.07,6.66a1.5,1.5,0,0,0,2.59,1.52Z"/><path class="cls-19" d="M1446.59,711c-1.24-3.81,0-4.22,2.76-6.58s5.17-4.65,8-6.74c2.44-1.81,5-3.48,7.37-5.39s4.2-4.35,6.58-6.25l-2.13-2.12a65.12,65.12,0,0,1-9.44,7.85l1.82,2.36,6-4.91c1.5-1.22-.63-3.33-2.12-2.12l-6,4.9c-1.31,1.07.43,3.36,1.81,2.36A69.16,69.16,0,0,0,1471.3,686c1.36-1.43-.65-3.3-2.13-2.12-3.6,2.88-6.57,6.25-10.35,9-2.68,2-5.39,3.85-7.9,6-1.67,1.45-3.22,3.06-5,4.43-.86.68-2.47,1.31-3,2.28-1.11,1.84.19,4.3.79,6.15s3.49,1.05,2.89-.8Z"/><path class="cls-19" d="M1446.07,713.27a17.39,17.39,0,0,0,2.14-6.59l-3,.4c.49,2.36-1.31,4.56-1.83,6.83-.31,1.35,1.48,2.68,2.51,1.46,5.79-6.85,11.08-13.57,18.16-19.11,4.79-3.75,12.83-8.22,12.34-15.06a1.52,1.52,0,0,0-2.56-1.06,10.4,10.4,0,0,0-2.52,4.61l2.74-.36c-1-2.14-2.12-3.93-4.56-2.5-1.41.83-.48,3.34,1.16,2.74,3.25-1.2,2.6-4.54,3.72-7.56,1.59-4.26,3.1-8.45,4.37-12.82l-3-.4c.68,5.38-.47,10.73-1.2,16h2.89l-.71-4.7c-.28-1.79-2.81-1.16-3,.4-1.15,12.53-11.81,16.64-18.38,25.79-1.13,1.57,1.47,3.07,2.59,1.51,3.71-5.17,9.41-8.3,13.36-13.23a25.61,25.61,0,0,0,5.43-14.07l-2.95.4.72,4.7c.22,1.43,2.69,1.44,2.89,0,.77-5.55,2-11.25,1.31-16.85-.2-1.59-2.44-2.15-2.95-.4-1,3.37-1.94,6.75-3.21,10-.1.27-2.6,8.19-2.78,8.26l1.16,2.74a2.07,2.07,0,0,0,.45,1.42c.56,1.22,2.43.81,2.75-.35l1.74-3.29-2.56-1.06c.44,6.07-11.06,12.36-15.12,15.67-5.54,4.53-9.9,10.94-14.5,16.38l2.5,1.46c.71-3.09,2.51-5.16,1.83-8.42-.37-1.81-2.74-1.14-2.94.39a10.75,10.75,0,0,1-1.73,5.08c-.94,1.69,1.65,3.2,2.59,1.51Z"/><polyline class="cls-32" points="1444.44 717.12 1442.39 705.96 1469.7 683.1 1477.76 660.64"/><path class="cls-19" d="M1495.13,758.73a48.62,48.62,0,0,0-16.07-14.79c-3.73-2.09-5.92-4.25-6.2-8.72-.31-4.82,4.79-7.69,8.53-10.09,1.62-1,.12-3.64-1.51-2.59-3.17,2-7.83,4.86-9.66,8.24-1.47,2.73-.26,7,.65,9.73,1.2,3.63,4.29,4.64,7.39,6.43a44.94,44.94,0,0,1,14.28,13.3c1.09,1.57,3.7.08,2.59-1.51Z"/><path class="cls-33" d="M1523.45,803.73c-.45,4.72-4.64,14.86-7.52,21.37l4.45-.89,43.94-8.85-17.4-110.52s-5.36-34.6-7.25-39.33-19-3.63-22.47-6-38.64,0-38.64,0,0,27.46-3.77,29.17-21.07,18.12-21.07,18.12l-11,12.19,85.8,46.21S1524.15,796.49,1523.45,803.73Z"/><path class="cls-19" d="M1464.5,756.77a135.14,135.14,0,0,1,30.18-40.34l-2.36-.3c2.42,3.7,1.16,9.12.45,13.21a91.15,91.15,0,0,1-2.6,10.7c-2.13,7.09-5,14-7.75,20.79l2.9.8A67.39,67.39,0,0,1,1502,729.46l-2.5-.66c3,19.83-.59,40.12,4.33,59.73.39,1.55,2.4,1.29,2.89,0l12.12-31.34-2.89-.8a129.41,129.41,0,0,1-6.53,16.45l2.74.36c-2.09-5.29.29-12.46,1.37-17.88s2.32-10.76,3.69-16.09l-2.89-.8-4.17,30,2.95.4,2.41-25.94c.17-1.83-2.37-1.84-2.94-.4l-5.25,13.14h2.89a69.64,69.64,0,0,1-.65-21c.2-1.67-2.69-2.07-2.94-.4a146.41,146.41,0,0,1-3.6,17h2.9a105.16,105.16,0,0,1-3.7-27.28c0-1.63-2.67-2.12-3-.4L1495,749.91h2.89a51.7,51.7,0,0,1-2.18-9.34,1.5,1.5,0,0,0-3,0,109.87,109.87,0,0,1-4.25,22.95h2.9A147.62,147.62,0,0,1,1487.2,732a1.51,1.51,0,0,0-3-.4l-8.45,31h2.89c-4.76-15.21-2.62-31.33-4.9-46.92-.25-1.72-2.91-1.23-3,.4a110.91,110.91,0,0,1-2,18.71l2.94.4a112.25,112.25,0,0,1,.31-20.33l-2.95.4a55,55,0,0,1,.9,15.73l3-.4a36.49,36.49,0,0,1-.42-10.06c.17-1.92-2.84-1.91-3,0a39.94,39.94,0,0,0,.52,10.86c.32,1.77,2.82,1.18,3-.4a58.4,58.4,0,0,0-1-16.53c-.36-1.78-2.78-1.16-3,.4a112.25,112.25,0,0,0-.31,20.33c.12,1.57,2.61,2.17,3,.4a116.18,116.18,0,0,0,2.08-19.51l-2.94.4c2.28,15.61.12,31.67,4.9,46.91a1.51,1.51,0,0,0,2.89,0l8.45-31-2.94-.4a152.37,152.37,0,0,0,4.22,32.31,1.52,1.52,0,0,0,2.9,0,114,114,0,0,0,4.35-23.74h-3A55.83,55.83,0,0,0,1495,750.7c.42,1.28,2.64,1.57,2.89,0l4.32-26.37-3-.4A108.73,108.73,0,0,0,1503,752a1.52,1.52,0,0,0,2.9,0,148.94,148.94,0,0,0,3.59-17l-3-.4a72.26,72.26,0,0,0,.76,21.77c.29,1.62,2.4,1.22,2.89,0l5.25-13.14-3-.39-2.41,25.94c-.16,1.66,2.71,2.07,3,.39l4.16-30c.26-1.85-2.39-2.72-2.89-.8-1.69,6.59-3.19,13.22-4.43,19.91-.93,5.08-2.61,10.66-.63,15.66.42,1.07,2.13,1.64,2.74.36a134.28,134.28,0,0,0,6.83-17.17c.6-1.87-2.21-2.56-2.89-.8l-12.12,31.34h2.89c-4.91-19.57-1.36-39.91-4.33-59.73a1.51,1.51,0,0,0-2.51-.66,70.39,70.39,0,0,0-17.45,33.49,1.51,1.51,0,0,0,2.9.8c3.49-8.54,7-17.13,9.2-26.11,1.5-6.12,4.11-15.2.39-20.91a1.52,1.52,0,0,0-2.35-.3,137.3,137.3,0,0,0-30.65,41c-.85,1.73,1.74,3.25,2.59,1.51Z"/><path class="cls-19" d="M1455.46,747.65a234.54,234.54,0,0,1,37.93-43.3l-2.51-1.46c-1.54,10.52-10.76,20.13-17.19,28.08l2.36,1.82a41,41,0,0,1,11.66-11.89l-2.2-1.69c-2.55,7-8.35,12.08-13.82,16.84a148.49,148.49,0,0,1-18.43,13.61l2.21,1.69a35.5,35.5,0,0,1,12.39-19.07l-2.56-1.06a30,30,0,0,1-4.77,13.58c-1.07,1.66,1.46,3,2.59,1.51a83.16,83.16,0,0,1,18.24-17.88c.25-.18,3.84-3,4.13-2.75,0,0-1.7,6.13-1.84,6.68-1.06,4-2.32,8-3.69,12-.58,1.67,1.85,2.52,2.74,1.15a34.91,34.91,0,0,1,9.4-9.75l-2.21-1.7a87.49,87.49,0,0,1-5.68,13.34,1.5,1.5,0,0,0,2.59,1.51,30.54,30.54,0,0,1,7.11-7.67l-2.21-.9a24.47,24.47,0,0,1-4.18,18.6l2.59,1.51c2.14-3.35,4.82-6.76,8.21-9,2.66-1.73,2.75-1.66,2,1.5-.44,1.79-1,3.55-1.53,5.31a1.51,1.51,0,0,0,2.75,1.15,21.31,21.31,0,0,1,10.74-9.79l-2.26-1.29a31.71,31.71,0,0,1-1.53,13,1.51,1.51,0,0,0,2.74,1.16c1-1.81,3.4-6.58,5.64-7.21,1.14-.33.48-.37.57,1.09a46.31,46.31,0,0,1-.23,4.85c-.08,1.65,2.68,2.08,2.94.39a4.35,4.35,0,0,1,2.77-4l-2.26-1.3a20.68,20.68,0,0,1-2.45,12.68l2.74,1.16a39.69,39.69,0,0,1,4.88-12.48,1.52,1.52,0,0,0-1.69-2.21,11.34,11.34,0,0,0-4.76,3l2.51.67c-1.31-4.37-2.39-8.75-3.27-13.22a1.51,1.51,0,0,0-2.74-.36L1504.21,765h2.59A22.29,22.29,0,0,1,1504,752c.11-1.61-2-1.87-2.8-.76l-3.07,4.41,2.74.36q-2.7-12.63-4.37-25.44c-.15-1.14-1.62-2.17-2.56-1.06l-8.58,10.06c-2.8,3.28-5.72,8.26-9.19,10.79s-4,.42-4.65-2.64c-.45-2.07-.87-4.16-1.25-6.25-.91-4.94-1.62-9.91-2.17-14.9a1.52,1.52,0,0,0-2.56-1.06l-8.43,8.62,2.36.31a8.52,8.52,0,0,1-1.42-4.14c-.23-1.36-2.11-1.36-2.74-.36l-4,6.33,2.8.75q-.81-9-.74-17.95c0-1.2-1.72-2.1-2.56-1.06l-6.56,8.13,2.51,1.46a74.91,74.91,0,0,1,1.62-8,1.52,1.52,0,0,0-2.2-1.7l-2.53,1.55,1.82,2.35c.89-1,4.28-4.53,5.72-4.08s1.16,3.14,1.22,4.65a68.13,68.13,0,0,1-.84,13.15c-.25,1.57,1.84,2.75,2.74,1.15a26.19,26.19,0,0,0,3.34-10.94,1.5,1.5,0,0,0-1.89-1.44c-1.09.45-2.77,1.64-3.89,1.61-2.37-.06-2.8-2.69-1.43-4.9l-2.74-.36,2.28,8.24a1.52,1.52,0,0,0,2.21.9,42.59,42.59,0,0,0,7.52-6.61l-2.51-.66a29.27,29.27,0,0,1,1.59,8.71c0,1,1.29,2,2.26,1.3l4.88-3.57-2.05-.54a7.6,7.6,0,0,1,1.37,4.06c.21,1.42,2.09,1.28,2.75.36a10.22,10.22,0,0,1,2.8-2.91l-2.5-.66,2,6.55a1.52,1.52,0,0,0,2.21.89,16.81,16.81,0,0,0,3.68-2.9l-2.36-.3,1.29,3.71c.1,1,1.25,2.06,2.26,1.3L1482,735l-2.2-.9a34,34,0,0,1,1.18,11.08h3a17.09,17.09,0,0,1,.85-5.59c.43-1.33-1.1-2.24-2.21-1.7l-3.09,1.53,2.21.89-1.35-3.42a1.53,1.53,0,0,0-2.51-.66l-9.24,8.87,2.56,1.06a27.92,27.92,0,0,1,6-15c.81-1,.11-3.09-1.46-2.5l-7.06,2.63c-1.72.65-5.27,2.79-7.07,2.64-8.46-.72-2.35-12.47.73-15.11l-2.51-1.46a52.3,52.3,0,0,1-5.24,11.15,1.51,1.51,0,0,0,2.36,1.82l22.36-22.78c1.35-1.38-.76-3.5-2.12-2.12-10,10.06-16.44,23-27.06,32.44l2.56,1.06c.79-8.43,6.78-15,12.36-20.85,5.24-5.52,10.9-10.61,16.56-15.69l-2.36-1.82q-10.5,14.4-21.81,28.17l2.35,1.82c5.21-10.66,14.57-17.84,23.92-24.71l-2-2.06a117.61,117.61,0,0,1-19.89,27.58l2.5,1.45a38,38,0,0,1,8.6-14.8l-2.36-1.82a72.78,72.78,0,0,1-6.94,12.32h2.59c-1.14-1.92,3.45-7,4.38-8.33l4.88-7c1-1.38-.84-2.58-2.05-2.06l-10.78,4.7c-2.12.93-6,1.84-7.61,3.52-1.94,2-3.13,6-4.43,8.47l-5.19,10a1.53,1.53,0,0,0,1.3,2.26c5.22.66,9.88-.76,14.95-1.75,5.76-1.14,17.63-.6,15.29,8.47-.35,1.35,1.52,2.68,2.51,1.46l12.21-15c.74-.91.36-2.65-1.06-2.56a8.66,8.66,0,0,0-6.82,3.45c-1.11,1.48-2.56,4.73-1.55,6.59.74,1.35,2,1.61,3.5,1.55,1.21,0,2.77-1.27,3.9-1.09,2.29.36,2.35,4.85,2.54,6.43a1.52,1.52,0,0,0,2.8.76l6.46-10.17c.93-1.46-1.15-3-2.36-1.82a116.2,116.2,0,0,1-10.12,8.82l2.56,1.06,1.35-2.5-2.56-1.06.87,7.44c.12,1,1.24,2.07,2.26,1.3l23.47-17.85-2-2.05c-2.6,3.78-5.34,7.89-9.43,10.21-4.46,2.53-10.67,2.18-13.23-2.79a1.52,1.52,0,0,0-2.59,0,67.73,67.73,0,0,0-7.34,12.28h2.59a6.24,6.24,0,0,1,1.18-8.67l-2.51-.66,3.6,16c.68,3,1,6.2,4,7.66a1.56,1.56,0,0,0,2.06-.54l19.38-29.69-2.75-1.15a119,119,0,0,1-6.21,20.47l2.89.8a36.79,36.79,0,0,1,4.86-11.36l-2.74-1.15a122.27,122.27,0,0,1-6.21,21.87h2.89a32.89,32.89,0,0,1,.31-22l-2.94-.4a80.6,80.6,0,0,1,.19,14.49c-.1,1.39,1.67,1.86,2.56,1.06l7.16-6.37-2.51-.66a30.51,30.51,0,0,1,.91,11.76,1.51,1.51,0,0,0,2.56,1.06,94.62,94.62,0,0,1,8.6-9.63l-2.51-.66a11.87,11.87,0,0,1,.74,7.42,1.5,1.5,0,0,0,2.89.8,10.93,10.93,0,0,1,3.6-5.48l-2.51-.66a8.36,8.36,0,0,1,.31,6.24l2.94.4.53-2.69c.65-1.57-2-2.66-2.74-1.16a52.36,52.36,0,0,0-4.14,11c-.41,1.59,2,2.75,2.74,1.16a50.09,50.09,0,0,0,4-12.42c.35-1.87-2.43-2.69-2.89-.79a62.41,62.41,0,0,0-1.76,16.34l3-.4q-2.54-8.46-5.81-16.64a1.52,1.52,0,0,0-2.74-.36l-5.9,10.22,2.75.35a7.29,7.29,0,0,1-.54-5.09l-3-.4a38.44,38.44,0,0,0,.65,8.15c.26,1.41,2.06,1.28,2.74.36a135,135,0,0,0,12.68-20.83c.7-1.43-1.19-3.21-2.35-1.82l-16.09,19.25,2.35.31a26.73,26.73,0,0,1-.63-19.26l-3-.4a18.16,18.16,0,0,1-.7,7.32c-.56,1.88,2.21,2.56,2.9.8a7.51,7.51,0,0,1,2.29-3.46l-2.51-.67a13.62,13.62,0,0,1,.75,6.54l2.94-.4-10.49-25.31a1.51,1.51,0,0,0-2.89,0q-4.05,10.86-7.4,21.94c-.57,1.85,2.31,2.63,2.89.8l2.58-8.13a1.51,1.51,0,0,0-1.45-1.9,123.71,123.71,0,0,0-32.58,5.86,1.51,1.51,0,0,0,.39,3c12.43,1.18,24.83,2.53,36.58,7a1.51,1.51,0,0,0,1.9-1.44c.37-6.06-4.11-10-8.54-13.44l-1.15,2.74,26.27,7.62-.36-2.74a115.76,115.76,0,0,1-17.91,7.82,1.51,1.51,0,0,0,.8,2.9,56.43,56.43,0,0,0,11.46-3.29l-1.46-2.51c-3.58,4.1-10,2.45-10.47-3.21l-2.56,1.06,7,6.6a1.51,1.51,0,0,0,2.51-.66,33.35,33.35,0,0,0,1-9l-3,.4,1.27,6.08a1.51,1.51,0,0,0,2.51.66,26.14,26.14,0,0,0,3.84-6.5c.55-1.35-1.17-2.18-2.21-1.7a13.7,13.7,0,0,0-4.48,3.28l2.51,1.46a34.69,34.69,0,0,1,2.47-8.58c.76-1.75-1.82-3.28-2.59-1.51a37.24,37.24,0,0,0-2.77,9.29c-.22,1.36,1.39,2.66,2.5,1.46a12.15,12.15,0,0,1,3.88-2.81l-2.21-1.69a17,17,0,0,1-3.06,5.18l2.5.66-1.27-6.08c-.34-1.66-3-1.28-2.94.4a30.88,30.88,0,0,1-.89,8.17l2.5-.67-7-6.6c-.88-.82-2.68-.3-2.56,1.06.69,8.2,10,11.71,15.59,5.33.88-1,.06-3.11-1.46-2.5a56.41,56.41,0,0,1-11.46,3.28l.8,2.9a121.64,121.64,0,0,0,18.62-8.13,1.51,1.51,0,0,0-.36-2.74l-26.27-7.62c-1.76-.51-2.41,1.77-1.15,2.74,3.54,2.73,7.35,5.93,7,10.85l1.9-1.45c-12-4.55-24.69-5.89-37.38-7.09l.4,2.94a121.11,121.11,0,0,1,31.79-5.75l-1.44-1.9-2.58,8.13,2.89.8q3.36-11.09,7.4-21.94h-2.89l10.49,25.31a1.51,1.51,0,0,0,3-.4,14.66,14.66,0,0,0-.86-7.33,1.52,1.52,0,0,0-2.51-.66,13.11,13.11,0,0,0-3.06,4.78l2.9.8a20.26,20.26,0,0,0,.8-8.12,1.51,1.51,0,0,0-3-.4,29.81,29.81,0,0,0,.94,21.57,1.51,1.51,0,0,0,2.36.3l16.09-19.25-2.36-1.81a135.47,135.47,0,0,1-12.68,20.83l2.74.35a34.91,34.91,0,0,1-.54-7.35c.05-1.66-2.64-2.09-2.94-.4a11.44,11.44,0,0,0,.53,6.69,1.53,1.53,0,0,0,2.75.36l5.89-10.22-2.74-.35q3.29,8.19,5.8,16.64a1.51,1.51,0,0,0,2.95-.4A59.45,59.45,0,0,1,1528,758l-2.89-.79a46.82,46.82,0,0,1-3.71,11.69l2.74,1.16a48.55,48.55,0,0,1,3.84-10.25l-2.74-1.15a5.25,5.25,0,0,0-.64,3.49,1.51,1.51,0,0,0,3,.4,10.75,10.75,0,0,0-.31-7.83,1.52,1.52,0,0,0-2.5-.67,13.68,13.68,0,0,0-4.37,6.8l2.89.8a14.39,14.39,0,0,0-.74-9,1.51,1.51,0,0,0-2.5-.66,94.62,94.62,0,0,0-8.6,9.63l2.56,1.06a32.48,32.48,0,0,0-1-12.56,1.51,1.51,0,0,0-2.5-.66l-7.16,6.37,2.56,1.06a80.6,80.6,0,0,0-.19-14.49,1.51,1.51,0,0,0-3-.4,35.64,35.64,0,0,0-.31,23.62,1.51,1.51,0,0,0,2.89,0,122.17,122.17,0,0,0,6.22-21.88,1.51,1.51,0,0,0-2.75-1.15,39.37,39.37,0,0,0-5.16,12.07,1.5,1.5,0,0,0,2.89.8,119.91,119.91,0,0,0,6.22-20.47,1.51,1.51,0,0,0-2.74-1.16l-19.38,29.68,2.05-.53c-2.84-1.37-3.33-8.81-3.94-11.51l-2.33-10.34a1.51,1.51,0,0,0-2.5-.66,9.07,9.07,0,0,0-1.65,12.3,1.52,1.52,0,0,0,2.59,0,68.42,68.42,0,0,1,7.34-12.28h-2.59c2.49,4.85,8.09,6.7,13.28,5.5,6.67-1.54,10.91-7.62,14.56-12.92.81-1.19-.86-3-2.06-2l-23.47,17.85,2.26,1.29-.87-7.44a1.52,1.52,0,0,0-2.56-1.06,5.49,5.49,0,0,0-2.23,4.62c-.08,1.45,1.64,1.78,2.56,1.06a117.82,117.82,0,0,0,10.13-8.82l-2.36-1.81-6.46,10.17,2.79.75c-.34-2.77-.41-7.8-3.42-9.19a4.77,4.77,0,0,0-2.92-.13c-.83.14-2.11,1-3,.93L1485,739a5.59,5.59,0,0,1,5.55-5.29l-1.06-2.56-12.21,15,2.5,1.46c1.36-5.28-1.88-10.22-6.87-12.09-8.56-3.21-17.56,2.68-26.26,1.57l1.29,2.25c2.74-5.26,5-12,8.64-16.64,2-2.52,5.61-3.43,8.41-4.65l9.89-4.3-2.06-2.06c-2.84,4.06-6.23,8.07-8.68,12.38-1.19,2.1-1.87,3.76-.58,5.95a1.52,1.52,0,0,0,2.59,0,72.87,72.87,0,0,0,6.94-12.33c.64-1.44-1.1-3.17-2.35-1.81a41.3,41.3,0,0,0-9.37,16.13,1.51,1.51,0,0,0,2.51,1.46,120.3,120.3,0,0,0,20.36-28.18c.63-1.21-.75-3-2-2-9.75,7.17-19.56,14.66-25,25.79-.69,1.42,1.21,3.22,2.36,1.81q11.55-14.07,22.28-28.77c1.05-1.44-1.15-2.9-2.36-1.82-7,6.3-14,12.61-20.23,19.73-4.82,5.54-8.86,11.46-9.56,18.93-.13,1.39,1.68,1.85,2.56,1.06,10.63-9.45,17.11-22.38,27.06-32.44l-2.12-2.12-22.37,22.77,2.36,1.82a56,56,0,0,0,5.55-11.86c.51-1.53-1.46-2.36-2.51-1.46-4.82,4.14-7.54,11.74-4.4,17.73,1.1,2.1,2.75,3.2,5.19,2.83,5.16-.8,10.63-3.88,15.53-5.71l-1.46-2.51a31.4,31.4,0,0,0-6.88,17.1c-.13,1.35,1.69,1.89,2.56,1.06l9.25-8.87-2.51-.66,1.34,3.42a1.54,1.54,0,0,0,2.21.9l3.09-1.53-2.21-1.69a19.24,19.24,0,0,0-1,6.39,1.5,1.5,0,0,0,3,0,36.29,36.29,0,0,0-1.29-11.87,1.5,1.5,0,0,0-2.2-.9l-4.67,3.54,2.26,1.29a11.51,11.51,0,0,0-1.7-5.22,1.51,1.51,0,0,0-2.35-.31,9.6,9.6,0,0,1-3.08,2.43l2.21.9-2-6.55a1.52,1.52,0,0,0-2.51-.66,16.55,16.55,0,0,0-3.27,3.52l2.74.36a12.31,12.31,0,0,0-1.68-4.78,1.5,1.5,0,0,0-2-.54l-4.89,3.57,2.26,1.29a31.58,31.58,0,0,0-1.7-9.51,1.51,1.51,0,0,0-2.5-.66,39.62,39.62,0,0,1-6.92,6.14l2.21.9-2.29-8.25a1.52,1.52,0,0,0-2.74-.36,7.76,7.76,0,0,0,1,9.89,1.48,1.48,0,0,0,1.46.39l6.21-2.58-1.9-1.45a22.47,22.47,0,0,1-2.93,9.43l2.74,1.15a75.31,75.31,0,0,0,1-12c0-2.27.49-6.52-1.11-8.51-3-3.72-8.92,1.63-11,3.88-1.12,1.22.31,3.28,1.82,2.36l2.52-1.55-2.2-1.69a73,73,0,0,0-1.62,8c-.19,1.28,1.44,2.78,2.5,1.46l6.56-8.13-2.56-1.06q-.06,9,.74,17.95a1.51,1.51,0,0,0,2.79.76l4-6.33-2.74-.36a14.12,14.12,0,0,0,1.72,4.86,1.51,1.51,0,0,0,2.35.3l8.43-8.62-2.56-1.06c.68,6.16,1.58,12.3,2.79,18.38.6,3,.67,10.3,4.94,10.81,4.06.48,7.64-5.84,9.75-8.31l13.48-15.82-2.56-1.06q1.71,13.21,4.48,26.24c.29,1.36,2.06,1.33,2.74.35l3.07-4.4L1501,752a25.39,25.39,0,0,0,3.21,14.45,1.51,1.51,0,0,0,2.59,0l11.64-19.35-2.75-.36c.89,4.47,2,8.86,3.28,13.22a1.5,1.5,0,0,0,2.5.66,6.39,6.39,0,0,1,3.44-2.21l-1.7-2.21a42.22,42.22,0,0,0-5.18,13.2c-.33,1.6,1.89,2.72,2.74,1.16a23.43,23.43,0,0,0,2.86-14.2,1.51,1.51,0,0,0-2.25-1.29,7.32,7.32,0,0,0-4.15,5.77l3,.4c.1-2.21,1.86-9.49-2-9.94s-8.08,7-9.57,9.69l2.75,1.16a34.06,34.06,0,0,0,1.63-13.77,1.52,1.52,0,0,0-2.25-1.3A23.71,23.71,0,0,0,1498.92,758l2.74,1.16c.73-2.36,4.89-11.74-.2-12.47-2.2-.32-4.85,2.29-6.4,3.57a36.42,36.42,0,0,0-7.54,8.73c-1,1.64,1.5,3.08,2.59,1.51a27.46,27.46,0,0,0,4.49-20.91,1.51,1.51,0,0,0-2.21-.89,34.92,34.92,0,0,0-8.18,8.75l2.59,1.51a91.93,91.93,0,0,0,6-14,1.51,1.51,0,0,0-2.2-1.69A39.12,39.12,0,0,0,1480.11,744l2.74,1.15c1-2.8,9.77-23.91,2.19-22.54-2.22.39-4.76,2.88-6.53,4.18-2.09,1.55-4.12,3.19-6.07,4.92a89,89,0,0,0-11.91,13.08l2.59,1.51a33.48,33.48,0,0,0,5.18-15.09c.14-1.45-1.67-1.78-2.56-1.07a38.28,38.28,0,0,0-13.16,20.4,1.52,1.52,0,0,0,2.2,1.7A153,153,0,0,0,1475.11,737c5.48-4.88,10.73-10,13.29-17a1.52,1.52,0,0,0-2.21-1.7,44.91,44.91,0,0,0-12.73,13c-.91,1.41,1.27,3.16,2.35,1.82,6.84-8.46,16.33-18.25,18-29.4a1.51,1.51,0,0,0-2.5-1.46,237.63,237.63,0,0,0-38.4,43.91c-1.09,1.6,1.51,3.1,2.59,1.51Z"/><path class="cls-17" d="M1795.32,717.3a31.09,31.09,0,0,1-2.44-7.64l-2.89.79c.54,1.64.29,3.5,1.12,5a9.92,9.92,0,0,0,1.3,1.59,5.93,5.93,0,0,1,1.19,3.74l2.8-.76a20.51,20.51,0,0,1-1.73-6.61c-.15-1.58-2.52-2.15-3-.4a25.73,25.73,0,0,1-2.36,6.22l2.35-.3c-1.31-1.12,2.75-7.16,3.4-8.28h-2.59c.73,1.5,1.31,3.44.16,4.93-.26.74-.27.52,0-.66a9.41,9.41,0,0,1,.24-1.08,14.1,14.1,0,0,1,1-2.75c.81-1.74-1.78-3.26-2.6-1.52-1,2.16-3.86,10.11,1.36,9.17,4.55-.81,3.95-6.59,2.48-9.6a1.51,1.51,0,0,0-2.59,0,44,44,0,0,0-3.67,7.25c-.58,1.64-.68,3.45.74,4.66a1.53,1.53,0,0,0,2.36-.3,29.22,29.22,0,0,0,2.67-6.94l-2.95-.4a25,25,0,0,0,2.14,8.13c.6,1.36,2.89.68,2.79-.76-.13-2-.36-3.93-1.69-5.47a4.8,4.8,0,0,1-1.47-2.53,19,19,0,0,0-.56-3.17,1.5,1.5,0,0,0-2.89.79,33.72,33.72,0,0,0,2.74,8.36c.82,1.75,3.41.23,2.59-1.51Z"/><rect class="cls-34" x="1327.48" y="400.05" width="452" height="416" transform="translate(-84.48 291.63) rotate(-10.44)"/><path d="M1384,869.84l2.35-.43,3,16.25,7.78-1.43.37,2-10.14,1.87Z"/><path d="M1399.57,868.48a1.43,1.43,0,0,1-1.24,1.74,1.45,1.45,0,0,1-1.71-1.2,1.48,1.48,0,0,1,1.22-1.76A1.43,1.43,0,0,1,1399.57,868.48Zm.44,17.25-2.41-13.09,2.38-.44,2.41,13.09Z"/><path d="M1405.57,882.19a6.32,6.32,0,0,0,3.31.37c1.73-.32,2.38-1.34,2.18-2.42s-1-1.63-2.88-1.95c-2.5-.41-3.85-1.5-4.14-3.07-.39-2.11,1-4.15,3.81-4.67a6.53,6.53,0,0,1,3.36.22l-.27,1.83a5.23,5.23,0,0,0-2.82-.26c-1.4.26-2,1.22-1.86,2.19s1.07,1.42,2.9,1.76c2.43.44,3.8,1.37,4.16,3.31.42,2.3-1.06,4.25-4.17,4.83a7.62,7.62,0,0,1-3.84-.22Z"/><path d="M1416.28,880.22a6.34,6.34,0,0,0,3.31.36c1.73-.31,2.38-1.33,2.18-2.41s-1-1.63-2.88-2c-2.5-.4-3.85-1.5-4.14-3.07-.39-2.1,1-4.15,3.81-4.67a6.63,6.63,0,0,1,3.36.22l-.27,1.84a5.13,5.13,0,0,0-2.82-.26c-1.4.26-2,1.21-1.86,2.19s1.07,1.42,2.9,1.75c2.43.45,3.8,1.37,4.16,3.32.42,2.3-1.06,4.25-4.17,4.82a7.52,7.52,0,0,1-3.84-.21Z"/><path d="M1435,879.28l-.5-1.61h-.08a5,5,0,0,1-3.64,2.69,3.8,3.8,0,0,1-4.7-3c-.58-3.17,1.91-5.42,7-6.32l0-.27a2.75,2.75,0,0,0-3.54-2.48,6.58,6.58,0,0,0-3.23,1.6l-.83-1.47a8.29,8.29,0,0,1,4.09-1.95c4-.74,5.48,1.81,6,4.43l.91,4.9a17.57,17.57,0,0,0,.79,3.09Zm-1.59-6.61c-2.6.42-5.47,1.42-5,4a2.14,2.14,0,0,0,2.67,1.85,3.31,3.31,0,0,0,2.76-2.77,2.54,2.54,0,0,0,0-.78Z"/><path d="M1440.69,878.23c-.11-.9-.3-2.23-.52-3.4L1437.26,859l2.35-.44,1.51,8.22h.06a5,5,0,0,1,4-3.23c3.24-.59,6,1.69,6.74,5.67.86,4.67-1.65,7.54-4.57,8.08a4.74,4.74,0,0,1-4.84-1.65h-.08l.29,2.19Zm1.49-5.69a3.93,3.93,0,0,0,.27.84,3.73,3.73,0,0,0,4.08,2.13c2.49-.46,3.6-2.76,3-5.76-.49-2.63-2.25-4.62-4.79-4.15a3.85,3.85,0,0,0-3.09,3.58,5.13,5.13,0,0,0,0,1Z"/><path d="M1466.8,866.54c.89,4.84-2.07,7.57-5.24,8.15-3.54.66-6.75-1.44-7.51-5.57-.81-4.38,1.58-7.48,5.21-8.15S1466.06,862.54,1466.8,866.54Zm-10.36,2.05c.53,2.87,2.58,4.73,4.9,4.3s3.58-2.87,3-5.82c-.41-2.21-2-4.82-4.85-4.3S1456,866.11,1456.44,868.59Z"/><path d="M1469.27,863.1c-.25-1.35-.48-2.46-.76-3.53l2.11-.38.53,2.13h.06a4.89,4.89,0,0,1,3.87-3.25c1.81-.34,4.82.23,5.65,4.71l1.44,7.82-2.38.44-1.39-7.55c-.39-2.11-1.5-3.72-3.74-3.31a3.44,3.44,0,0,0-2.74,3,3.19,3.19,0,0,0,0,1.14l1.45,7.86-2.38.44Z"/><path d="M1491,869l-.26-1.46,1.53-2.16c3.7-5.1,5.31-7.74,4.85-10.4a3.2,3.2,0,0,0-4.13-2.79,6.07,6.07,0,0,0-3.45,2.18l-1.07-1.54a7.84,7.84,0,0,1,4.65-2.7c3.78-.7,5.86,1.6,6.32,4.12.6,3.24-1.27,6.3-4.32,10.55l-1.16,1.56v0l7.89-1.45.37,2Z"/><path d="M1514.92,855.27c1.1,6-.51,9.69-4.41,10.4-3.43.64-6.35-2.15-7.47-8s.85-9.61,4.42-10.26S1513.88,849.67,1514.92,855.27Zm-9.5,2c.84,4.57,2.73,6.91,4.89,6.51,2.43-.45,3.07-3.5,2.25-8-.8-4.33-2.43-7-4.89-6.51C1505.58,849.69,1504.54,852.52,1505.42,857.3Z"/><path d="M1521.1,847.53H1521l-2.75,2.22-.79-1.73,3.46-2.76,2-.38,3.23,17.58-2.29.42Z"/><path d="M1540.81,841.61l.29,1.57-4.71,17.42-2.46.45,4.76-16.95V844l-8.6,1.59-.36-2Z"/><path d="M403.71,406.05a31.08,31.08,0,0,0-5.4,11.73,1.51,1.51,0,0,0,2.74,1.16,46.13,46.13,0,0,0,6.38-16.46l-2.94-.4L404,408.4h3a85.34,85.34,0,0,0-.81-14.11c-.23-1.66-3.05-1.28-2.95.4a28.08,28.08,0,0,1-.58,8h2.9a166.87,166.87,0,0,1-7-35.82,1.5,1.5,0,0,0-3,0c-.16,11,2.75,21.41,5.95,31.8a317.5,317.5,0,0,1,8.25,34.16l13.61,71.49c.36,1.89,3.25,1.09,2.89-.8L413,434a304.4,304.4,0,0,0-7.53-32.54c-3.46-11.32-7.1-22.58-6.93-34.55h-3a171,171,0,0,0,7.11,36.62c.42,1.34,2.57,1.51,2.9,0a31.08,31.08,0,0,0,.68-8.82l-2.94.4a81.13,81.13,0,0,1,.7,13.31c-.05,2,2.86,1.91,3,0l.48-6.32c.12-1.67-2.65-2.07-2.95-.4a44,44,0,0,1-6.08,15.74l2.74,1.16a28.9,28.9,0,0,1,5.1-11c1.15-1.56-1.45-3.05-2.59-1.52Z"/><path d="M426.53,507.1a1.5,1.5,0,0,0,0-3,1.5,1.5,0,0,0,0,3Z"/></g></svg>