<?xml version="1.0" encoding="utf-8"?>
<!-- Generator: Adobe Illustrator 23.0.3, SVG Export Plug-In . SVG Version: 6.00 Build 0)  -->
<svg version="1.1" id="Layer_1" xmlns="http://www.w3.org/2000/svg" xmlns:xlink="http://www.w3.org/1999/xlink" x="0px" y="0px"
	 viewBox="0 0 59.2 55.9" style="enable-background:new 0 0 59.2 55.9;" xml:space="preserve">
<style type="text/css">
	.st0{fill:#C49A6C;}
	.st1{fill:#A97C50;}
	.st2{stroke:#000000;stroke-miterlimit:10;}
	.st3{fill:#3C2415;}
	.st4{fill:#C2B59B;}
</style>
<path class="st0" d="M48.5,49.6c0,0.9-9.5,2.5-21.2,2.5S6.9,50.8,6.9,49.9c0-0.9,8.7-1,20.4-1S48.5,48.7,48.5,49.6z"/>
<ellipse class="st1" cx="27.3" cy="50.2" rx="12.4" ry="1"/>
<path class="st0" d="M47.8,30.5c0.9,0.6,1.5,1.4,2,2.2c0.6,1.1,1,2.5,0.1,3.4c-0.7,0.7-2,0.9-3.3,0.9c-1.3,0-2.5-0.3-3.8-0.4
	c-0.6-0.1-1.2-0.1-1.6,0.1c-0.4,0.2-0.4,0.7-0.4,1.1c0,0.7,0.2,1.6,1.1,2c0.5,0.3,1.2,0.3,1.8,0.3c0.8,0,1.7,0.1,2.5,0.1
	c1.3,0.1,2.7,0.1,4,0c1.3-0.2,2.6-0.5,3.4-1.2c1-0.8,1.2-2,1.4-3.1c0.1-0.9,0.3-1.8,0.4-2.7c0.1-0.7,0.2-1.4,0-2.1
	c-0.4-1.2-1.8-2.1-3.4-2.7s-3.3-0.8-5-1.1c-1-0.1-2-0.3-3-0.4c-0.9-0.1-1.8-0.2-2.5,0c-1.5,0.5-1,2.2,0.7,2.4
	C44.1,29.7,46,29.4,47.8,30.5z"/>
<path class="st2" d="M-153.6-24.6"/>
<path class="st0" d="M47.6,25.3c0.4,14.2-9.3,25.6-20.5,25.5S4.2,38,6.9,24.7c0.6-2.9,9.6,0.6,20.3,0.3
	C39.1,24.6,47.5,21.2,47.6,25.3z"/>
<ellipse class="st1" cx="27.2" cy="24.7" rx="20.3" ry="3.7"/>
<ellipse class="st3" cx="27.2" cy="26.3" rx="17.6" ry="2.1"/>
<path class="st4" d="M29.9,26.8c-0.9-0.9-0.2-0.3-0.6-1.5c-0.3-1.2-0.2-2.5,0.5-3.5c0.6-0.9,1.7-1.6,2.4-2.4c0.8-1,1.2-2.3,1.3-3.6
	c0.1-1.3-0.2-2.5-0.5-3.8c-0.3-1.4-0.9-3-2.3-3.5c0.7,0,1.2,0.4,1.7,0.8c1.5,1.2,3,2.4,4,3.9c1,1.5,1.5,3.4,0.9,5.2
	c-0.2,0.6-0.6,1.2-0.7,1.8c-0.3,1.2-0.1,2.4,0.5,3.5c0.6,1.1,1.4,2,2.3,3C36.2,26.8,33.1,26.9,29.9,26.8"/>
<path class="st4" d="M25.8,25.8c0.6-0.6,0.2-0.2,0.4-1s0.1-1.7-0.3-2.4c-0.4-0.6-1.1-1.1-1.5-1.7c-0.5-0.7-0.8-1.6-0.8-2.5
	c0-0.9,0.1-1.8,0.3-2.7c0.2-1,0.5-2.1,1.5-2.4c-0.4,0-0.8,0.3-1.1,0.5c-0.9,0.8-1.9,1.7-2.6,2.8s-1,2.4-0.6,3.6
	c0.1,0.4,0.4,0.8,0.5,1.3c0.2,0.8,0,1.7-0.3,2.5s-0.9,1.4-1.4,2.1C21.8,25.8,23.8,25.8,25.8,25.8"/>
<path class="st4" d="M16,18.7c-0.5-0.9,0.2-2,1-2.7c0.8-0.7,1.8-1.1,2.5-1.9c0.9-1.1,0.9-2.7,0.4-4s-1.5-2.4-2.5-3.5
	c1.3,0.5,2.7,1.1,3.7,2c1,1,1.7,2.4,1.4,3.7c-0.4,1.8-2.3,2.9-3.2,4.4c-0.3,0.6-0.6,1.2-0.7,1.8c-0.1,0.3-0.1,1.4-0.4,1.6
	C17.6,20.5,16.2,19.1,16,18.7z"/>
<path class="st4" d="M29,11.6c-0.6-1.3-0.9-2.8-1-4.4c-0.1-1.4,0.1-3,0.9-3.9c-1.1,0.4-2.2,1-2.8,2.2c-0.6,1.1-0.7,2.5-0.6,3.8
	c0.1,1.3,0.6,2.5,1,3.7c0.5,1.4,1.1,2.8,1.6,4.2c0.3,0.9,0.4,2.9,1.4,1.9c0.8-0.8,1.1-2.6,0.9-3.9C30.3,13.9,29.6,12.8,29,11.6z"/>
</svg>
