<?xml version="1.0" standalone="no"?>
<!DOCTYPE svg PUBLIC "-//W3C//DTD SVG 20010904//EN"
 "http://www.w3.org/TR/2001/REC-SVG-20010904/DTD/svg10.dtd">
<svg version="1.0" xmlns="http://www.w3.org/2000/svg"
 width="944.000000pt" height="944.000000pt" viewBox="0 0 944.000000 944.000000"
 preserveAspectRatio="xMidYMid meet">
<metadata>
Created by potrace 1.11, written by Peter Selinger 2001-2013
</metadata>
<g transform="translate(0.000000,944.000000) scale(0.100000,-0.100000)"
fill="#000000" stroke="none">
<path d="M4495 8605 c-123 -61 -140 -72 -225 -155 -32 -30 -60 -65 -64 -77 -4
-13 -11 -23 -15 -23 -4 0 -18 -24 -32 -52 -13 -29 -28 -56 -32 -59 -5 -3 -8
-9 -7 -13 1 -3 -5 -30 -14 -59 -33 -114 -39 -170 -40 -342 0 -77 3 -160 6
-185 10 -67 35 -182 47 -213 6 -15 13 -38 15 -50 3 -12 18 -60 36 -107 17 -47
31 -87 32 -90 0 -3 4 -15 9 -28 5 -13 12 -35 15 -50 4 -15 10 -31 14 -37 4 -5
17 -39 29 -75 12 -36 31 -84 42 -107 10 -24 19 -45 19 -48 0 -5 27 -75 127
-335 14 -35 27 -71 28 -80 2 -8 4 -15 5 -15 1 0 3 -7 5 -15 2 -8 6 -26 9 -40
3 -14 7 -35 10 -47 4 -13 8 -31 10 -41 40 -180 102 -216 193 -113 53 59 98
162 123 286 14 67 17 263 6 340 -4 28 -8 60 -9 73 -1 12 -4 22 -7 22 -3 0 -6
8 -7 18 -1 10 -13 47 -27 82 -14 35 -26 69 -26 77 0 7 -4 13 -10 13 -5 0 -10
5 -10 12 0 7 -32 78 -72 158 -39 80 -76 153 -81 164 -11 23 -37 96 -42 116 -1
8 -10 41 -20 72 -9 31 -18 70 -21 85 -3 15 -7 35 -10 44 -2 9 -7 32 -9 50 -2
19 -7 52 -10 74 -20 134 -26 398 -11 485 21 126 46 201 95 280 17 27 27 50 23
50 -4 0 -47 -20 -97 -45z"/>
<path d="M2798 8102 c126 -132 312 -375 312 -409 0 -7 4 -13 8 -13 4 0 13 -12
19 -27 52 -130 61 -153 56 -153 -3 0 0 -7 7 -15 7 -8 10 -15 8 -15 -3 0 0 -28
7 -62 29 -156 -6 -343 -83 -447 -35 -47 -122 -130 -144 -137 -10 -3 -18 -10
-18 -15 0 -5 -6 -9 -14 -9 -8 0 -16 -3 -18 -7 -5 -11 -97 -73 -108 -73 -6 0
-10 -4 -10 -10 0 -5 -7 -10 -15 -10 -8 0 -15 -3 -16 -7 0 -5 -26 -28 -57 -52
-96 -75 -168 -174 -200 -276 -14 -46 -4 -126 22 -170 62 -105 215 -222 299
-229 43 -4 45 -2 66 34 12 21 21 42 20 47 -1 4 0 10 1 13 4 11 8 41 13 93 6
59 33 169 47 195 17 31 64 137 63 142 -3 15 118 166 215 269 129 137 212 235
212 250 0 6 4 11 9 11 5 0 13 10 17 23 4 12 10 24 13 27 4 3 14 23 24 45 104
238 11 523 -241 738 -17 15 -34 27 -38 27 -3 0 -20 11 -38 25 -18 14 -38 25
-44 25 -6 0 -12 3 -14 8 -8 18 -359 182 -392 182 -3 0 2 -8 12 -18z"/>
<path d="M4921 7821 c-9 -6 -7 -10 11 -14 31 -8 61 -31 129 -99 92 -93 152
-229 209 -478 12 -52 24 -106 27 -120 3 -14 7 -29 8 -35 44 -195 49 -407 15
-575 -24 -114 -108 -327 -139 -350 -4 -3 -17 -21 -29 -40 -11 -19 -55 -66 -98
-105 -42 -38 -103 -95 -136 -125 l-60 -55 -456 2 c-251 1 -462 2 -468 2 -21 2
-95 125 -129 216 -45 117 -52 315 -20 520 3 22 9 54 12 70 4 17 7 37 8 45 4
30 48 194 56 209 5 9 14 27 19 41 25 60 64 106 108 129 35 19 26 31 -10 14
-52 -26 -93 -56 -167 -122 -120 -106 -231 -222 -276 -285 -11 -15 -25 -33 -31
-40 -42 -45 -122 -202 -143 -281 -23 -86 -32 -188 -19 -222 4 -14 4 -23 -3
-23 -6 0 -7 -4 -4 -10 3 -5 13 -35 21 -66 8 -31 28 -87 44 -124 39 -89 39 -97
-7 -97 -21 -1 -83 -4 -138 -8 -55 -4 -120 -8 -145 -10 -25 -2 -81 -6 -125 -10
-44 -4 -102 -9 -130 -10 -27 -2 -50 -4 -50 -5 0 -1 -13 -3 -30 -4 -73 -7 -175
-18 -240 -27 -38 -6 -92 -12 -120 -15 -49 -5 -90 -11 -90 -14 0 -1 -20 -3 -45
-6 -25 -2 -52 -7 -60 -10 -8 -3 -33 -7 -55 -9 -22 -2 -51 -6 -65 -10 -14 -3
-41 -8 -60 -10 -19 -3 -46 -8 -60 -11 -14 -3 -34 -8 -45 -10 -18 -3 -84 -17
-140 -28 -11 -3 -63 -16 -115 -30 -308 -81 -509 -180 -560 -276 -13 -25 -35
-125 -46 -210 -3 -25 -7 -52 -9 -60 -5 -19 -18 -161 -19 -212 -1 -21 -4 -38
-8 -38 -4 0 -4 -10 1 -22 4 -13 6 -32 4 -43 -6 -26 -5 -211 1 -305 8 -112 24
-262 31 -290 2 -8 7 -31 10 -50 3 -19 8 -48 12 -65 3 -16 7 -39 9 -50 2 -11 6
-31 9 -45 3 -14 8 -36 11 -50 3 -14 9 -39 15 -56 13 -42 21 -75 22 -96 1 -10
5 -18 9 -18 4 0 8 -7 8 -15 0 -36 102 -311 172 -465 36 -77 117 -241 128 -255
4 -5 22 -37 40 -70 18 -33 63 -105 99 -160 36 -55 69 -108 73 -118 4 -9 14
-20 23 -23 8 -4 15 -12 15 -20 0 -8 5 -14 10 -14 6 0 10 -7 10 -15 0 -8 5 -15
10 -15 6 0 10 -6 10 -14 0 -8 3 -16 8 -18 4 -1 36 -39 72 -83 35 -44 71 -87
79 -96 9 -9 31 -35 49 -58 39 -48 238 -248 304 -306 25 -22 69 -60 99 -85 29
-25 63 -55 76 -67 13 -12 23 -20 23 -18 0 2 51 -34 112 -80 62 -46 124 -90
138 -97 14 -7 34 -21 44 -30 11 -10 26 -18 33 -18 7 0 13 -4 13 -10 0 -5 5
-10 11 -10 6 0 23 -9 38 -19 29 -21 92 -56 184 -103 31 -16 57 -31 57 -32 0
-2 -84 -4 -187 -5 -622 -9 -930 -18 -1218 -36 -145 -9 -156 -10 -350 -30 -22
-2 -41 -5 -42 -6 -4 -2 -12 -4 -68 -14 -60 -10 -51 -8 -102 -29 -24 -10 -43
-22 -43 -26 0 -22 15 -42 44 -57 44 -24 157 -62 184 -63 12 0 22 -4 22 -9 0
-6 8 -9 18 -9 9 0 29 -2 45 -6 50 -11 72 -15 192 -37 66 -11 138 -22 160 -24
22 -2 54 -8 72 -14 17 -5 34 -7 36 -5 2 3 35 0 73 -6 70 -12 89 -14 204 -26
36 -3 81 -8 100 -10 54 -6 119 -12 195 -18 39 -3 93 -8 120 -10 28 -3 84 -8
125 -11 41 -4 78 -9 82 -11 4 -3 8 0 8 6 0 6 5 8 12 4 13 -8 20 -9 198 -19
311 -16 499 -24 750 -30 234 -6 1030 -6 1205 -1 129 5 193 7 480 21 119 6 249
13 325 19 30 3 96 7 145 10 50 4 104 8 120 11 17 2 66 7 110 10 127 10 146 12
152 18 3 4 13 2 23 -3 10 -5 20 -6 24 -3 8 8 23 11 106 17 36 3 74 7 85 10 18
3 89 13 165 21 85 10 138 17 155 21 11 2 41 6 67 8 26 2 50 6 55 9 4 3 31 7
58 11 28 3 61 8 75 11 14 3 54 10 89 16 36 5 67 12 70 14 4 2 25 6 47 9 52 8
273 63 299 75 18 8 52 22 65 26 54 17 82 54 60 80 -12 15 -70 34 -125 41 -16
3 -46 7 -65 10 -114 20 -420 33 -887 38 -189 3 -347 7 -353 11 -5 3 -10 2 -10
-3 0 -5 -20 -6 -45 -2 -25 4 -47 5 -50 2 -7 -8 -69 -6 -89 1 -10 4 -23 4 -29
0 -13 -8 -96 -8 -104 0 -3 4 -14 2 -24 -4 -13 -7 -19 -6 -19 1 0 6 -5 8 -12 4
-6 -4 -32 -6 -57 -5 -63 2 -56 2 -154 -1 -64 -2 -87 0 -87 10 0 6 4 12 9 12
12 0 155 83 159 92 2 5 8 8 14 8 20 0 254 164 348 245 20 16 55 46 79 65 46
36 269 256 331 326 135 151 289 359 395 533 l68 112 126 -6 c69 -3 171 -9 226
-12 236 -12 610 -7 691 11 12 2 37 7 55 10 19 3 45 8 59 11 14 4 39 9 55 11
17 3 34 10 40 15 5 5 17 9 26 9 10 0 28 4 41 9 13 5 26 9 31 10 6 1 41 18 136
70 75 41 198 207 217 293 9 39 12 53 14 53 1 0 3 7 5 15 2 8 8 35 14 60 6 25
13 61 16 80 2 19 6 49 9 65 3 17 7 48 11 70 3 23 8 52 11 65 3 14 7 41 9 60 3
19 7 51 11 70 3 19 7 49 9 65 1 17 6 50 10 75 4 25 9 59 11 75 6 45 5 177 -2
205 -3 14 -6 30 -8 37 -1 7 -5 16 -9 19 -4 4 -7 15 -7 24 0 23 -80 129 -131
173 -24 21 -51 44 -60 52 -9 8 -20 15 -26 15 -6 0 -16 6 -23 14 -26 32 -282
148 -397 181 -32 9 -65 19 -73 22 -8 3 -24 7 -35 9 -11 1 -49 9 -85 18 -81 19
-103 23 -215 42 -49 8 -103 17 -120 21 -16 3 -38 6 -48 7 -16 0 -17 15 -17
186 0 102 -2 196 -5 210 -3 14 -8 40 -11 58 -14 73 -139 167 -304 229 -30 12
-64 25 -75 29 -11 4 -23 8 -27 9 -5 2 -10 4 -13 5 -3 1 -8 3 -12 4 -5 2 -28 8
-53 16 -25 7 -51 13 -57 13 -7 0 -13 3 -13 7 0 3 -8 6 -17 7 -10 0 -28 4 -40
7 -47 12 -61 16 -203 45 -80 17 -164 33 -185 36 -45 7 -80 13 -110 19 -11 2
-42 7 -70 11 -27 4 -63 9 -80 12 -16 2 -46 6 -65 8 -19 2 -71 8 -115 14 -131
17 -167 21 -239 26 -38 3 -72 8 -76 10 -8 5 -4 81 6 135 4 19 8 44 9 55 2 22
42 134 54 150 18 25 74 184 85 245 14 70 15 253 2 305 -4 17 -12 50 -18 75
-14 64 -67 197 -100 253 -15 26 -28 52 -28 57 0 6 -4 10 -9 10 -5 0 -12 8 -16
19 -3 10 -13 28 -23 39 -9 12 -28 35 -42 53 -14 18 -31 38 -38 46 -7 7 -11 13
-9 13 6 0 -194 200 -240 240 -36 32 -285 236 -340 278 -23 18 -55 37 -72 43
-17 6 -31 15 -31 20 0 5 -13 9 -28 9 -15 0 -32 4 -38 10 -5 5 -15 5 -23 1z
m2715 -3520 c88 -62 149 -123 225 -222 53 -70 132 -208 134 -234 1 -5 6 -22
13 -38 6 -15 14 -38 16 -50 2 -12 8 -40 14 -62 5 -22 6 -49 2 -60 -4 -11 -5
-24 -2 -29 2 -4 -4 -35 -14 -68 -21 -71 -82 -144 -143 -173 -22 -11 -41 -23
-41 -27 0 -4 -7 -5 -15 -2 -8 4 -15 1 -15 -7 0 -7 -3 -10 -6 -6 -3 3 -23 -1
-45 -8 -21 -8 -39 -12 -39 -9 0 3 -5 2 -12 -2 -14 -9 -44 -14 -108 -18 -25 -1
-50 -4 -55 -7 -12 -6 -197 -3 -243 4 -40 5 -48 12 -35 29 5 7 17 33 26 58 9
25 22 59 28 75 7 17 13 32 14 35 0 3 13 41 27 85 34 105 67 216 72 240 3 11
12 48 21 82 9 35 18 71 20 80 2 10 11 52 20 93 9 41 18 89 20 105 3 17 7 40 9
52 10 46 20 118 18 126 -5 19 31 3 94 -42z"/>
</g>
</svg>
