<?xml version="1.0" encoding="utf-8"?>
<!-- Generator: Adobe Illustrator 23.0.3, SVG Export Plug-In . SVG Version: 6.00 Build 0)  -->
<svg version="1.1" id="Layer_1" xmlns="http://www.w3.org/2000/svg" xmlns:xlink="http://www.w3.org/1999/xlink" x="0px" y="0px"
	 viewBox="0 0 300 400" style="enable-background:new 0 0 300 400;" xml:space="preserve">
<style type="text/css">
	.st0{fill:#CBCBCA;}
	.st1{fill:#808285;}
	.st2{fill:#BCBEC0;}
	.st3{fill:#A7A9AC;}
	.st4{fill:#939598;}
</style>
<polygon class="st0" points="202.4,149.3 125.6,156.5 111.8,10.6 188.5,3.5 "/>
<image style="overflow:visible;" width="750" height="727" xlink:href="../../../../Billeder/eksamen/62620084_2303813056352283_1270084218122141696_n.jpg"  transform="matrix(9.257156e-02 -7.498257e-03 1.308473e-02 0.1579 116.7371 16.1986)">
</image>
<polygon class="st0" points="181.6,361.6 108.3,364.9 103,223.8 176.3,220.5 "/>
<image style="overflow:visible;" width="569" height="637" xlink:href="../../../../Billeder/eksamen/62474866_37562061426786692_7431783895990796288_n.jpg"  transform="matrix(0.1107 -5.267741e-03 9.049897e-03 0.1858 107.1177 226.3938)">
</image>
<polygon class="st1" points="218.2,190.2 145.2,165.9 192.5,27.1 265.5,51.4 "/>
<image style="overflow:visible;" width="640" height="661" xlink:href="../../../../Billeder/eksamen/eksamen 1.jpg"  transform="matrix(0.1026 3.336765e-02 -5.152871e-02 0.1549 194.1787 33.1491)">
</image>
<polygon class="st2" points="249,272.4 175.8,267.1 187.2,126.4 260.4,131.6 "/>
<image style="overflow:visible;" width="2448" height="3264" xlink:href="../../../../Billeder/eksamen/64303299_627099911033350_1583867665410162688_n.jpg"  transform="matrix(2.642344e-02 2.263607e-03 -3.072857e-03 3.505344e-02 191.671 129.39)">
</image>
<polygon class="st0" points="275.9,324.1 203.2,313.8 224.5,174.2 297.2,184.5 "/>
<image style="overflow:visible;" width="720" height="1280" xlink:href="../../../../Billeder/eksamen/64379227_2424969050855583_7780865832648704_n.jpg"  transform="matrix(8.408380e-02 1.247406e-02 -1.426376e-02 9.395898e-02 229.8537 179.2576)">
</image>
<rect x="178" y="241.8" transform="matrix(0.9271 -0.3749 0.3749 0.9271 -101.5086 103.2728)" class="st3" width="73.3" height="141.4"/>
<image style="overflow:visible;" width="720" height="1280" xlink:href="../../../../Billeder/eksamen/62358649_361918214467375_4532251057849368576_n.jpg"  transform="matrix(8.112142e-02 -3.335253e-02 3.197303e-02 7.770930e-02 161.2125 265.3888)">
</image>
<polygon class="st0" points="93.1,185.9 20.8,172.9 47.4,34.2 119.7,47.2 "/>
<image style="overflow:visible;" width="2448" height="3264" xlink:href="../../../../Billeder/eksamen/62475223_708602652910155_8576034961138647040_n.jpg"  transform="matrix(2.594807e-02 4.485880e-03 -5.767541e-03 3.260228e-02 49.977 39.6395)">
</image>
<polygon class="st4" points="175.8,236.1 104.4,252.9 72.4,115.3 143.8,98.5 "/>
<image style="overflow:visible;" width="960" height="960" xlink:href="../../../../Billeder/eksamen/park.jpg"  transform="matrix(6.376827e-02 -1.450630e-02 2.438992e-02 0.1048 78.1793 118.5505)">
</image>
<polygon class="st1" points="107.8,287.3 31.3,296.5 14.2,150.9 90.6,141.8 "/>
<image style="overflow:visible;" width="720" height="960" xlink:href="../../../../Billeder/eksamen/portugal.jpg"  transform="matrix(9.297632e-02 -1.144081e-02 1.528721e-02 0.1226 18.5206 154.6306)">
</image>
<polygon class="st3" points="86.2,396.5 14.2,382.4 42.2,243.9 114.2,257.9 "/>
<image style="overflow:visible;" width="2448" height="3264" xlink:href="../../../../Billeder/eksamen/62603520_839122386452842_5786849659716632576_n.jpg"  transform="matrix(2.614413e-02 5.392435e-03 -7.413987e-03 3.548629e-02 45.4285 250.4034)">
</image>
</svg>
